<svg width="180" height="180" viewBox="0 0 180 180" fill="none" xmlns="http://www.w3.org/2000/svg">
<g clip-path="url(#clip0_3982_18041)">
<rect width="180" height="180" fill="white"/>
<mask id="mask0_3982_18041" style="mask-type:luminance" maskUnits="userSpaceOnUse" x="0" y="0" width="180" height="180">
<path d="M180 0H0V180H180V0Z" fill="white"/>
</mask>
<g mask="url(#mask0_3982_18041)">
<path d="M90 180C139.706 180 180 139.706 180 90C180 40.2945 139.706 0 90 0C40.2945 0 0 40.2945 0 90C0 139.706 40.2945 180 90 180Z" fill="#0058E3"/>
<path d="M180 90C180 40.2945 139.706 0 90 0C40.2945 0 0 40.2945 0 90C0 139.706 40.2945 180 90 180C139.706 180 180 139.706 180 90Z" fill="black"/>
</g>
<rect width="180" height="180" fill="black"/>
<path d="M88.001 62C95.3343 62 100.974 63.6584 104.918 66.9746C108.918 70.2908 110.918 74.6129 110.918 79.9404C110.918 84.996 109.362 89.0189 106.251 92.0088C104.14 94.0202 100.806 96.4665 96.251 99.3477C91.7928 102.202 88.8069 104.203 87.2932 105.35C87.266 105.37 87.251 105.402 87.251 105.436C87.251 105.496 87.2998 105.545 87.36 105.545H109.098C109.919 105.545 110.585 106.211 110.585 107.032V117.513C110.585 118.334 109.919 119 109.098 119H64.4049C63.5837 119 62.915 118.334 62.9406 117.513C63.0447 114.172 63.5089 111.433 64.334 109.296C65.334 106.85 67.0292 104.54 69.418 102.365C70.4735 101.441 71.6118 100.489 72.834 99.5107C74.1117 98.5322 75.5843 97.445 77.251 96.249C78.9732 95.053 80.2791 94.1556 81.168 93.5576C82.0569 92.9596 83.5847 91.9542 85.751 90.541C87.9176 89.0732 89.1676 88.2302 89.501 88.0127C92.8341 85.7839 94.5008 83.3108 94.501 80.5928C94.501 78.7988 93.9176 77.3845 92.751 76.3516C91.5843 75.3189 89.8899 74.8028 87.668 74.8027C84.9458 74.8027 82.9458 75.6181 81.668 77.249C80.4472 78.7652 79.7421 80.8249 79.553 83.4283C79.4935 84.2473 78.8353 84.9141 78.0141 84.9141H65.3209C64.4997 84.9141 63.8319 84.2482 63.8485 83.4272C63.9003 80.874 64.0903 78.8414 64.418 77.3301C64.8069 75.4819 65.557 73.6066 66.668 71.7041C68.3346 68.7685 71.0013 66.431 74.668 64.6914C78.3346 62.8974 82.7788 62 88.001 62ZM40.4033 103.243C40.4033 104.064 41.069 104.729 41.8902 104.729H59.6194C60.8685 104.729 61.5908 106.205 60.9772 107.293C60.6068 107.95 60.2878 108.617 60.0205 109.295C59.2245 111.432 58.7766 114.172 58.6761 117.512C58.6514 118.333 57.9886 118.999 57.1674 118.999H25.7838C24.9626 118.999 24.2969 118.333 24.2969 117.512V63.4869C24.2969 62.6657 24.9626 62 25.7838 62H38.9164C39.7376 62 40.4033 62.6657 40.4033 63.4869V103.243Z" fill="url(#paint0_radial_3982_18041)"/>
<path d="M140.762 62C147.548 62 152.872 63.7541 156.735 67.2617C160.912 71.0352 163 76.0577 163 82.3291C163 87.8562 161.173 92.4531 157.519 96.1201C153.917 99.7872 149.323 101.621 143.737 101.621H132.85C132.03 101.621 131.365 102.286 131.365 103.105V117.516C131.365 118.335 130.701 119 129.881 119H116.484C115.665 119 115 118.335 115 117.516V90.1904C115 89.3706 115.665 88.7061 116.484 88.7061H140.214C142.197 88.706 143.764 88.0953 144.912 86.873C146.113 85.6507 146.713 84.0561 146.713 82.0898C146.713 80.1768 146.112 78.662 144.912 77.5459C143.764 76.3767 142.145 75.792 140.057 75.792H116.484C115.665 75.792 115 75.1274 115 74.3076V63.4844C115 62.6646 115.665 62 116.484 62H140.762Z" fill="white"/>
</g>
<defs>
<radialGradient id="paint0_radial_3982_18041" cx="0" cy="0" r="1" gradientUnits="userSpaceOnUse" gradientTransform="translate(67.6074 90.5) scale(43.3105 352.111)">
<stop stop-color="#A5FFBE"/>
<stop offset="1" stop-color="#53CBC8"/>
</radialGradient>
<clipPath id="clip0_3982_18041">
<rect width="180" height="180" fill="white"/>
</clipPath>
</defs>
</svg>
