<svg width="114" height="24" viewBox="0 0 114 24" fill="none" xmlns="http://www.w3.org/2000/svg">
<path d="M6.33077 16.9189C6.33077 17.1509 6.51586 17.3388 6.7442 17.3388H14.2426C14.5901 17.3388 14.7887 17.753 14.6024 18.0507C14.3761 18.4128 14.1892 18.783 14.0423 19.1614C13.7159 20.0512 13.539 21.2031 13.5102 22.6155C13.5055 22.8473 13.3209 23.0355 13.0926 23.0355H0.413429C0.185098 23.0355 0 22.8475 0 22.6157V0.703032C0 0.471167 0.185098 0.283203 0.413428 0.283203H5.91734C6.14567 0.283203 6.33077 0.471167 6.33077 0.703031V16.9189ZM25.0393 0.283203C27.9214 0.283264 30.1374 0.945092 31.6878 2.26849C33.2601 3.59218 34.0474 5.31748 34.0474 7.44405C34.0474 9.46182 33.4358 11.0677 32.2132 12.2611C31.3834 13.064 30.0721 14.0407 28.2815 15.1908C26.5295 16.3299 25.3562 17.1288 24.7612 17.5867C24.7507 17.5949 24.7447 17.6073 24.7447 17.6208C24.7447 17.6448 24.7639 17.6642 24.7874 17.6642H33.5022C33.7307 17.6642 33.9157 17.8521 33.9157 18.084V22.6157C33.9157 22.8475 33.7307 23.0355 33.5022 23.0355H15.592C15.3637 23.0355 15.1781 22.8473 15.183 22.6155C15.2132 21.2031 15.3983 20.0513 15.7366 19.1614C16.1297 18.1851 16.7948 17.2623 17.7338 16.3944C18.1487 16.0255 18.5974 15.6462 19.0779 15.2556C19.5799 14.8652 20.1581 14.4312 20.8129 13.9542C21.4896 13.477 22.0031 13.1189 22.3525 12.8802C22.7018 12.6415 23.3026 12.2393 24.1541 11.6752C25.0058 11.0893 25.4975 10.7528 25.6286 10.666C26.9386 9.77646 27.5943 8.78942 27.5944 7.70462C27.5944 6.98853 27.3647 6.4239 26.9061 6.01161C26.4476 5.59931 25.7811 5.39257 24.9076 5.39257C23.8377 5.39263 23.0516 5.71913 22.5493 6.37007C22.0433 7.00848 21.763 7.88824 21.7081 9.00947C21.6968 9.24105 21.5131 9.42935 21.2846 9.42935H15.9532C15.7249 9.42935 15.5395 9.24116 15.5425 9.00932C15.5577 7.90831 15.6332 7.03889 15.7693 6.40177C15.9222 5.66416 16.2164 4.9152 16.653 4.15591C17.3081 2.98436 18.3565 2.05152 19.7974 1.35719C21.2386 0.641102 22.9866 0.283203 25.0393 0.283203Z" fill="url(#paint0_radial_4174_3347)"/>
<path d="M83.3444 0C84.9682 0 86.4254 0.219333 87.7161 0.657628C89.0067 1.09592 90.0893 1.84735 90.9636 2.91176C91.7576 3.85947 92.1997 5.02204 92.2897 6.39997C92.305 6.63313 92.1182 6.82444 91.888 6.82444H86.1951C85.9921 6.82444 85.823 6.67306 85.7669 6.47489C85.455 5.37224 84.533 4.82123 83.001 4.82123C82.2932 4.82126 81.7103 4.96748 81.2523 5.25966C80.7947 5.55179 80.5654 5.92705 80.5653 6.38603C80.5653 6.53197 80.5863 6.66762 80.6277 6.79273C80.6694 6.89698 80.7424 7.00146 80.8464 7.10569C80.9504 7.21005 81.0545 7.30484 81.1586 7.38833C81.2835 7.47176 81.4502 7.55444 81.6583 7.63787C81.8664 7.70047 82.0538 7.76414 82.2204 7.82675C82.4076 7.88935 82.6574 7.96248 82.9697 8.04596C83.2819 8.10856 83.5526 8.17086 83.7816 8.23345C84.0314 8.29607 84.3541 8.3692 84.7496 8.45266C85.145 8.53612 85.4991 8.61875 85.8114 8.7022C86.8937 8.9735 87.8203 9.26602 88.5905 9.57905C89.3606 9.87124 90.131 10.2896 90.9012 10.8323C91.692 11.3539 92.2856 12.042 92.6811 12.8975C93.0973 13.7324 93.3056 14.714 93.3056 15.841C93.3055 18.1992 92.3894 20.0353 90.5577 21.3501C88.7466 22.665 86.4566 23.3231 83.6879 23.3231C80.6487 23.3231 78.1817 22.665 76.2873 21.3501C74.5032 20.1117 73.5405 18.3549 73.4 16.0797C73.3855 15.8458 73.5725 15.6535 73.8031 15.6535H79.6998C79.9087 15.6535 80.0816 15.8132 80.1272 16.02C80.4602 17.5285 81.6889 18.2826 83.8129 18.2826C84.5622 18.2826 85.218 18.1364 85.7801 17.8441C86.363 17.5312 86.6544 17.0613 86.6544 16.4352C86.6543 15.7467 86.165 15.2143 85.1867 14.8386C84.7495 14.6718 83.823 14.4103 82.4076 14.0556C81.4502 13.8261 80.6693 13.6175 80.0658 13.4297C79.4621 13.2418 78.7436 12.9602 77.911 12.5846C77.0785 12.1881 76.4122 11.771 75.9125 11.3327C75.4339 10.8736 75.0174 10.279 74.6635 9.54871C74.3097 8.81835 74.1327 7.99351 74.1327 7.07537C74.1327 4.65452 74.9865 2.86989 76.6933 1.72197C78.4002 0.574081 80.6175 2.82522e-05 83.3444 0ZM104.24 0C105.83 0 107.258 0.219333 108.522 0.657628C109.786 1.09595 110.846 1.84751 111.702 2.91176C112.479 3.8595 112.913 5.02207 113.001 6.40007C113.016 6.63322 112.829 6.82444 112.599 6.82444H107.04C106.837 6.82444 106.668 6.67238 106.612 6.47345C106.306 5.37178 105.403 4.82123 103.903 4.82123C103.211 4.82132 102.64 4.96753 102.191 5.25966C101.743 5.55179 101.519 5.92703 101.519 6.38603C101.519 6.53207 101.54 6.66757 101.58 6.79273C101.621 6.89695 101.692 7.00148 101.794 7.10569C101.896 7.20998 101.997 7.30489 102.099 7.38833C102.222 7.47181 102.385 7.5544 102.589 7.63787C102.793 7.70046 102.976 7.76416 103.139 7.82675C103.323 7.88937 103.568 7.96247 103.874 8.04596C104.179 8.10856 104.445 8.17086 104.669 8.23345C104.914 8.29604 105.23 8.36925 105.617 8.45266C106.004 8.53612 106.351 8.61874 106.657 8.7022C107.717 8.97345 108.623 9.26609 109.378 9.57905C110.132 9.87124 110.886 10.2896 111.641 10.8323C112.415 11.354 112.997 12.042 113.384 12.8975C113.792 13.7324 113.996 14.714 113.996 15.841C113.996 18.1993 113.098 20.0353 111.304 21.3501C109.53 22.665 107.288 23.3231 104.577 23.3231C101.6 23.3231 99.185 22.665 97.3297 21.3501C95.5821 20.1116 94.6393 18.3551 94.5016 16.0796C94.4875 15.8458 94.6744 15.6535 94.9051 15.6535H100.662C100.872 15.6535 101.045 15.8137 101.09 16.0211C101.416 17.5289 102.619 18.2826 104.699 18.2826C105.433 18.2826 106.075 18.1364 106.626 17.8441C107.196 17.5312 107.482 17.0613 107.482 16.4352C107.482 15.7467 107.003 15.2143 106.045 14.8386C105.616 14.6718 104.708 14.4103 103.322 14.0556C102.385 13.8261 101.62 13.6175 101.029 13.4297C100.438 13.2418 99.7348 12.9602 98.9195 12.5846C98.104 12.188 97.451 11.771 96.9618 11.3327C96.493 10.8736 96.085 10.279 95.7385 9.54871C95.3919 8.81835 95.2186 7.99351 95.2186 7.07537C95.2186 4.65466 96.0548 2.86989 97.7262 1.72197C99.3978 0.574096 101.57 4.15389e-05 104.24 0ZM45.7753 0.285385C48.4423 0.285469 50.5348 0.985408 52.053 2.38511C53.6946 3.8913 54.5159 5.89701 54.5159 8.40028C54.5157 10.6063 53.7975 12.4417 52.3613 13.9053C50.9456 15.3689 49.1396 16.1002 46.9442 16.1002H42.4939C42.2659 16.1002 42.0811 16.2878 42.0811 16.5193V22.6186C42.0811 22.85 41.8963 23.0377 41.6683 23.0377H36.0612C35.8332 23.0377 35.6484 22.85 35.6484 22.6186V11.3644C35.6484 11.133 35.8332 10.9453 36.0612 10.9453H45.5593C46.3391 10.9453 46.9545 10.7011 47.4059 10.2132C47.8777 9.72531 48.1145 9.08869 48.1145 8.30377C48.1145 7.54031 47.8776 6.93621 47.4059 6.49081C46.9545 6.0242 46.3188 5.79054 45.4983 5.79044H36.0612C35.8332 5.79044 35.6484 5.6028 35.6484 5.37133V0.704503C35.6484 0.473032 35.8332 0.285385 36.0612 0.285385H45.7753ZM65.8544 0.235753C66.0264 0.235753 66.1803 0.343972 66.2408 0.507388L74.3534 22.4215C74.4547 22.6955 74.2554 22.988 73.967 22.988H67.8021C67.6252 22.988 67.4678 22.8734 67.4112 22.7032L66.3941 19.6461L64.9006 15.0648L63.4696 10.6089L62.6206 7.71258C62.6153 7.69443 62.5989 7.68199 62.5802 7.68199C62.5611 7.68199 62.5444 7.69515 62.5394 7.71388C62.225 8.90807 61.9417 9.87306 61.6898 10.6089L60.1964 15.0648L58.7016 19.6461L57.6845 22.7032C57.6278 22.8734 57.4704 22.988 57.2934 22.988H51.5731C51.2851 22.988 51.0856 22.696 51.1866 22.4219L59.2691 0.507868C59.3296 0.344202 59.4836 0.235753 59.6557 0.235753H65.8544Z" fill="#1A1A1A"/>
<defs>
<radialGradient id="paint0_radial_4174_3347" cx="0" cy="0" r="1" gradientTransform="matrix(21.5761 -0.199581 0.196529 21.9111 17.0237 11.6594)" gradientUnits="userSpaceOnUse">
<stop stop-color="#A5FFBE"/>
<stop offset="1" stop-color="#53CBC8"/>
</radialGradient>
</defs>
</svg>
