<svg width="120" height="120" viewBox="0 0 120 120" fill="none" xmlns="http://www.w3.org/2000/svg">
<g clip-path="url(#clip0_4025_17719)">
<path d="M60 120C58.6774 120 57.5351 119.559 56.5731 118.676C55.6513 117.833 55.0701 116.71 54.8297 115.306C53.8677 108.646 52.8457 102.889 51.7635 98.0341C50.7214 93.1795 49.4389 89.0672 47.9158 85.6971C46.4329 82.2869 44.5691 79.4584 42.3246 77.2116C40.0802 74.9248 37.2745 73.0592 33.9078 71.6148C30.5411 70.1705 26.4729 68.9669 21.7034 68.004C16.9739 67.001 11.3627 66.0582 4.86974 65.1755C3.42685 65.015 2.24449 64.4534 1.32265 63.4905C0.440882 62.5276 0 61.3641 0 60C0 58.6359 0.460922 57.4724 1.38277 56.5095C2.30461 55.5466 3.46693 54.9649 4.86974 54.7643C12.6854 53.9218 19.2585 52.9188 24.5892 51.7553C29.9198 50.5517 34.3086 48.9067 37.7555 46.8205C41.2425 44.7342 44.0481 41.9458 46.1723 38.4554C48.2966 34.9248 50 30.4112 51.2826 24.9147C52.5651 19.4183 53.7475 12.658 54.8297 4.6339C55.0701 3.22969 55.6513 2.10632 56.5731 1.26379C57.5351 0.421264 58.6774 0 60 0C61.2826 0 62.3848 0.421264 63.3066 1.26379C64.2685 2.10632 64.8697 3.22969 65.1102 4.6339C66.2325 12.658 67.4349 19.4183 68.7174 24.9147C70.0401 30.3711 71.7635 34.8646 73.8878 38.3952C76.012 41.8857 78.7976 44.674 82.2445 46.7603C85.6914 48.8465 90.0802 50.4915 95.4108 51.6951C100.741 52.8586 107.315 53.8816 115.13 54.7643C116.493 54.9649 117.635 55.5466 118.557 56.5095C119.519 57.4724 120 58.6359 120 60C120 61.3641 119.519 62.5276 118.557 63.4905C117.635 64.4534 116.473 65.015 115.07 65.1755C107.295 66.0582 100.721 67.1013 95.3507 68.3049C90.02 69.4684 85.6112 71.0933 82.1242 73.1795C78.6774 75.2658 75.8918 78.0742 73.7675 81.6048C71.6834 85.0953 69.98 89.5888 68.6573 95.0853C67.3747 100.542 66.1924 107.282 65.1102 115.306C64.9098 116.71 64.3287 117.833 63.3667 118.676C62.4449 119.559 61.3226 120 60 120Z" fill="url(#paint0_radial_4025_17719)"/>
</g>
<defs>
<radialGradient id="paint0_radial_4025_17719" cx="0" cy="0" r="1" gradientUnits="userSpaceOnUse" gradientTransform="translate(60.1318 59.572) scale(72.3982 164.454)">
<stop stop-color="#53CBC8"/>
<stop offset="1" stop-color="#A5FFBE"/>
</radialGradient>
<clipPath id="clip0_4025_17719">
<rect width="120" height="120" fill="white"/>
</clipPath>
</defs>
</svg>
