<svg width="180" height="180" viewBox="0 0 180 180" fill="none" xmlns="http://www.w3.org/2000/svg">
<g clip-path="url(#clip0_3982_18191)">
<rect width="180" height="180" fill="white"/>
<mask id="mask0_3982_18191" style="mask-type:luminance" maskUnits="userSpaceOnUse" x="0" y="0" width="180" height="180">
<path d="M180 0H0V180H180V0Z" fill="white"/>
</mask>
<g mask="url(#mask0_3982_18191)">
<path d="M90 180C139.706 180 180 139.706 180 90C180 40.2945 139.706 0 90 0C40.2945 0 0 40.2945 0 90C0 139.706 40.2945 180 90 180Z" fill="#0058E3"/>
<path d="M180 90C180 40.2945 139.706 0 90 0C40.2945 0 0 40.2945 0 90C0 139.706 40.2945 180 90 180C139.706 180 180 139.706 180 90Z" fill="black"/>
</g>
<rect width="180" height="180" fill="black"/>
<path d="M90.3643 151.785C89.0215 151.785 87.8618 151.337 86.8852 150.442C85.9494 149.587 85.3594 148.448 85.1152 147.024C84.1387 140.269 83.1011 134.43 82.0024 129.507C80.9445 124.583 79.6424 120.413 78.0962 116.995C76.5907 113.536 74.6986 110.667 72.4199 108.389C70.1413 106.069 67.293 104.177 63.875 102.712C60.457 101.248 56.327 100.027 51.4849 99.0503C46.6834 98.033 40.9868 97.0768 34.395 96.1816C32.9302 96.0189 31.7298 95.4492 30.7939 94.4727C29.8988 93.4961 29.4512 92.3161 29.4512 90.9326C29.4512 89.5492 29.9191 88.3691 30.855 87.3926C31.7909 86.416 32.9709 85.826 34.395 85.6226C42.3296 84.7681 49.0028 83.7508 54.4145 82.5708C59.8263 81.3501 64.2819 79.6818 67.7812 77.5659C71.3213 75.45 74.1696 72.6221 76.3262 69.082C78.4827 65.5013 80.2121 60.9237 81.5142 55.3491C82.8162 49.7746 84.0166 42.9183 85.1152 34.7803C85.3594 33.3561 85.9494 32.2168 86.8852 31.3623C87.8618 30.5078 89.0215 30.0806 90.3643 30.0806C91.6663 30.0806 92.7853 30.5078 93.7212 31.3623C94.6977 32.2168 95.3081 33.3561 95.5522 34.7803C96.6916 42.9183 97.9123 49.7746 99.2144 55.3491C100.557 60.883 102.307 65.4403 104.463 69.021C106.62 72.561 109.448 75.389 112.947 77.5049C116.447 79.6208 120.902 81.2891 126.314 82.5098C131.726 83.6898 138.399 84.7274 146.333 85.6226C147.717 85.826 148.877 86.416 149.812 87.3926C150.789 88.3691 151.277 89.5492 151.277 90.9326C151.277 92.3161 150.789 93.4961 149.812 94.4727C148.877 95.4492 147.697 96.0189 146.272 96.1816C138.379 97.0768 131.705 98.1348 126.253 99.3555C120.841 100.535 116.365 102.183 112.825 104.299C109.326 106.415 106.498 109.264 104.341 112.844C102.225 116.384 100.496 120.942 99.1533 126.516C97.8512 132.05 96.6509 138.886 95.5522 147.024C95.3488 148.448 94.7588 149.587 93.7822 150.442C92.8463 151.337 91.707 151.785 90.3643 151.785Z" fill="url(#paint0_radial_3982_18191)"/>
</g>
<defs>
<radialGradient id="paint0_radial_3982_18191" cx="0" cy="0" r="1" gradientUnits="userSpaceOnUse" gradientTransform="translate(90.5 90.5) scale(73.5 166.789)">
<stop stop-color="#53CBC8"/>
<stop offset="1" stop-color="#A5FFBE"/>
</radialGradient>
<clipPath id="clip0_3982_18191">
<rect width="180" height="180" fill="white"/>
</clipPath>
</defs>
</svg>
