<svg width="206" height="39" viewBox="0 0 206 39" fill="none" xmlns="http://www.w3.org/2000/svg">
<g clip-path="url(#clip0_4061_17583)">
<g clip-path="url(#clip1_4061_17583)">
<path d="M6.33077 24.4189C6.33077 24.6509 6.51586 24.8388 6.7442 24.8388H14.2426C14.5901 24.8388 14.7887 25.253 14.6024 25.5507C14.3761 25.9128 14.1892 26.283 14.0423 26.6614C13.7159 27.5512 13.539 28.7031 13.5102 30.1155C13.5055 30.3473 13.3209 30.5355 13.0926 30.5355H0.413429C0.185098 30.5355 0 30.3475 0 30.1157V8.20303C0 7.97117 0.185098 7.7832 0.413428 7.7832H5.91734C6.14567 7.7832 6.33077 7.97117 6.33077 8.20303V24.4189ZM25.0393 7.7832C27.9214 7.78326 30.1374 8.44509 31.6878 9.76849C33.2601 11.0922 34.0474 12.8175 34.0474 14.9441C34.0474 16.9618 33.4358 18.5677 32.2132 19.7611C31.3834 20.564 30.0721 21.5407 28.2815 22.6908C26.5295 23.8299 25.3562 24.6288 24.7612 25.0867C24.7507 25.0949 24.7447 25.1073 24.7447 25.1208C24.7447 25.1448 24.7639 25.1642 24.7874 25.1642H33.5022C33.7307 25.1642 33.9157 25.3521 33.9157 25.584V30.1157C33.9157 30.3475 33.7307 30.5355 33.5022 30.5355H15.592C15.3637 30.5355 15.1781 30.3473 15.183 30.1155C15.2132 28.7031 15.3983 27.5513 15.7366 26.6614C16.1297 25.6851 16.7948 24.7623 17.7338 23.8944C18.1487 23.5255 18.5974 23.1462 19.0779 22.7556C19.5799 22.3652 20.1581 21.9312 20.8129 21.4542C21.4896 20.977 22.0031 20.6189 22.3525 20.3802C22.7018 20.1415 23.3026 19.7393 24.1541 19.1752C25.0058 18.5893 25.4975 18.2528 25.6286 18.166C26.9386 17.2765 27.5943 16.2894 27.5944 15.2046C27.5944 14.4885 27.3647 13.9239 26.9061 13.5116C26.4476 13.0993 25.7811 12.8926 24.9076 12.8926C23.8377 12.8926 23.0516 13.2191 22.5493 13.8701C22.0433 14.5085 21.763 15.3882 21.7081 16.5095C21.6968 16.741 21.5131 16.9293 21.2846 16.9293H15.9532C15.7249 16.9293 15.5395 16.7412 15.5425 16.5093C15.5577 15.4083 15.6332 14.5389 15.7693 13.9018C15.9222 13.1642 16.2164 12.4152 16.653 11.6559C17.3081 10.4844 18.3565 9.55152 19.7974 8.85719C21.2386 8.1411 22.9866 7.7832 25.0393 7.7832Z" fill="#E1E4E4"/>
<path d="M83.3444 7.5C84.9682 7.5 86.4254 7.71933 87.7161 8.15763C89.0067 8.59592 90.0893 9.34735 90.9636 10.4118C91.7576 11.3595 92.1997 12.522 92.2897 13.9C92.305 14.1331 92.1182 14.3244 91.888 14.3244H86.1951C85.9921 14.3244 85.823 14.1731 85.7669 13.9749C85.455 12.8722 84.533 12.3212 83.001 12.3212C82.2932 12.3213 81.7103 12.4675 81.2523 12.7597C80.7947 13.0518 80.5654 13.4271 80.5653 13.886C80.5653 14.032 80.5863 14.1676 80.6277 14.2927C80.6694 14.397 80.7424 14.5015 80.8464 14.6057C80.9504 14.7101 81.0545 14.8048 81.1586 14.8883C81.2835 14.9718 81.4502 15.0544 81.6583 15.1379C81.8664 15.2005 82.0538 15.2641 82.2204 15.3268C82.4076 15.3894 82.6574 15.4625 82.9697 15.546C83.2819 15.6086 83.5526 15.6709 83.7816 15.7335C84.0314 15.7961 84.3541 15.8692 84.7496 15.9527C85.145 16.0361 85.4991 16.1188 85.8114 16.2022C86.8937 16.4735 87.8203 16.766 88.5905 17.079C89.3606 17.3712 90.131 17.7896 90.9012 18.3323C91.692 18.8539 92.2856 19.542 92.6811 20.3975C93.0973 21.2324 93.3056 22.214 93.3056 23.341C93.3055 25.6992 92.3894 27.5353 90.5577 28.8501C88.7466 30.165 86.4566 30.8231 83.6879 30.8231C80.6487 30.8231 78.1817 30.165 76.2873 28.8501C74.5032 27.6117 73.5405 25.8549 73.4 23.5797C73.3855 23.3458 73.5725 23.1535 73.8031 23.1535H79.6998C79.9087 23.1535 80.0816 23.3132 80.1272 23.52C80.4602 25.0285 81.6889 25.7826 83.8129 25.7826C84.5622 25.7826 85.218 25.6364 85.7801 25.3441C86.363 25.0312 86.6544 24.5613 86.6544 23.9352C86.6543 23.2467 86.165 22.7143 85.1867 22.3386C84.7495 22.1718 83.823 21.9103 82.4076 21.5556C81.4502 21.3261 80.6693 21.1175 80.0658 20.9297C79.4621 20.7418 78.7436 20.4602 77.911 20.0846C77.0785 19.6881 76.4122 19.271 75.9125 18.8327C75.4339 18.3736 75.0174 17.779 74.6635 17.0487C74.3097 16.3183 74.1327 15.4935 74.1327 14.5754C74.1327 12.1545 74.9865 10.3699 76.6933 9.22197C78.4002 8.07408 80.6175 7.50003 83.3444 7.5ZM104.24 7.5C105.83 7.5 107.258 7.71933 108.522 8.15763C109.786 8.59595 110.846 9.34751 111.702 10.4118C112.479 11.3595 112.913 12.5221 113.001 13.9001C113.016 14.1332 112.829 14.3244 112.599 14.3244H107.04C106.837 14.3244 106.668 14.1724 106.612 13.9734C106.306 12.8718 105.403 12.3212 103.903 12.3212C103.211 12.3213 102.64 12.4675 102.191 12.7597C101.743 13.0518 101.519 13.427 101.519 13.886C101.519 14.0321 101.54 14.1676 101.58 14.2927C101.621 14.397 101.692 14.5015 101.794 14.6057C101.896 14.71 101.997 14.8049 102.099 14.8883C102.222 14.9718 102.385 15.0544 102.589 15.1379C102.793 15.2005 102.976 15.2642 103.139 15.3268C103.323 15.3894 103.568 15.4625 103.874 15.546C104.179 15.6086 104.445 15.6709 104.669 15.7335C104.914 15.796 105.23 15.8693 105.617 15.9527C106.004 16.0361 106.351 16.1187 106.657 16.2022C107.717 16.4734 108.623 16.7661 109.378 17.079C110.132 17.3712 110.886 17.7896 111.641 18.3323C112.415 18.854 112.997 19.542 113.384 20.3975C113.792 21.2324 113.996 22.214 113.996 23.341C113.996 25.6993 113.098 27.5353 111.304 28.8501C109.53 30.165 107.288 30.8231 104.577 30.8231C101.6 30.8231 99.185 30.165 97.3297 28.8501C95.5821 27.6116 94.6393 25.8551 94.5016 23.5796C94.4875 23.3458 94.6744 23.1535 94.9051 23.1535H100.662C100.872 23.1535 101.045 23.3137 101.09 23.5211C101.416 25.0289 102.619 25.7826 104.699 25.7826C105.433 25.7826 106.075 25.6364 106.626 25.3441C107.196 25.0312 107.482 24.5613 107.482 23.9352C107.482 23.2467 107.003 22.7143 106.045 22.3386C105.616 22.1718 104.708 21.9103 103.322 21.5556C102.385 21.3261 101.62 21.1175 101.029 20.9297C100.438 20.7418 99.7348 20.4602 98.9195 20.0846C98.104 19.688 97.451 19.271 96.9618 18.8327C96.493 18.3736 96.085 17.779 95.7385 17.0487C95.3919 16.3183 95.2186 15.4935 95.2186 14.5754C95.2186 12.1547 96.0548 10.3699 97.7262 9.22197C99.3978 8.0741 101.57 7.50004 104.24 7.5ZM45.7753 7.78539C48.4423 7.78547 50.5348 8.48541 52.053 9.88511C53.6946 11.3913 54.5159 13.397 54.5159 15.9003C54.5157 18.1063 53.7975 19.9417 52.3613 21.4053C50.9456 22.8689 49.1396 23.6002 46.9442 23.6002H42.4939C42.2659 23.6002 42.0811 23.7878 42.0811 24.0193V30.1186C42.0811 30.35 41.8963 30.5377 41.6683 30.5377H36.0612C35.8332 30.5377 35.6484 30.35 35.6484 30.1186V18.8644C35.6484 18.633 35.8332 18.4453 36.0612 18.4453H45.5593C46.3391 18.4453 46.9545 18.2011 47.4059 17.7132C47.8777 17.2253 48.1145 16.5887 48.1145 15.8038C48.1145 15.0403 47.8776 14.4362 47.4059 13.9908C46.9545 13.5242 46.3188 13.2905 45.4983 13.2904H36.0612C35.8332 13.2904 35.6484 13.1028 35.6484 12.8713V8.2045C35.6484 7.97303 35.8332 7.78539 36.0612 7.78539H45.7753ZM65.8544 7.73575C66.0264 7.73575 66.1803 7.84397 66.2408 8.00739L74.3534 29.9215C74.4547 30.1955 74.2554 30.488 73.967 30.488H67.8021C67.6252 30.488 67.4678 30.3734 67.4112 30.2032L66.3941 27.1461L64.9006 22.5648L63.4696 18.1089L62.6206 15.2126C62.6153 15.1944 62.5989 15.182 62.5802 15.182C62.5611 15.182 62.5444 15.1951 62.5394 15.2139C62.225 16.4081 61.9417 17.3731 61.6898 18.1089L60.1964 22.5648L58.7016 27.1461L57.6845 30.2032C57.6278 30.3734 57.4704 30.488 57.2934 30.488H51.5731C51.2851 30.488 51.0856 30.196 51.1866 29.9219L59.2691 8.00787C59.3296 7.8442 59.4836 7.73575 59.6557 7.73575H65.8544Z" fill="#E1E4E4"/>
</g>
<path d="M127.761 8.10083H133.839C140.345 8.10083 143.599 11.9094 143.599 19.5583C143.599 27.1914 140.345 31 133.839 31H127.761V8.10083ZM129.935 10.0686V29.0322H133.712C138.901 29.0322 141.377 25.9854 141.377 19.5583C141.377 13.1313 138.901 10.0686 133.712 10.0686H129.935ZM163.372 21.4468C163.372 27.7627 160.229 31.4761 155.135 31.4761C150.042 31.4761 146.899 27.7627 146.899 21.4468V17.6541C146.899 11.3381 150.042 7.62476 155.135 7.62476C160.229 7.62476 163.372 11.3381 163.372 17.6541V21.4468ZM155.135 29.4607C158.881 29.4607 161.198 26.5249 161.198 21.4468V17.6541C161.198 12.5759 158.881 9.64014 155.135 9.64014C151.39 9.64014 149.073 12.5759 149.073 17.6541V21.4468C149.073 26.5249 151.39 29.4607 155.135 29.4607ZM175.75 29.4607C179.066 29.4607 181.161 27.5723 181.256 24.4778H183.43C183.43 28.5562 180.225 31.4761 175.75 31.4761C170.481 31.4761 167.434 27.8103 167.434 21.4468V17.6541C167.434 11.2905 170.481 7.62476 175.75 7.62476C180.399 7.62476 183.335 10.4653 183.446 15.0991H181.272C181.145 11.8459 178.907 9.64014 175.75 9.64014C171.719 9.64014 169.608 12.4014 169.608 17.6541V21.4468C169.608 26.6995 171.719 29.4607 175.75 29.4607ZM187.731 25.0491H189.905C190.206 27.7944 192.38 29.4924 195.586 29.4924C198.855 29.4924 200.997 27.7151 200.997 25.0015C200.997 22.8115 199.553 21.4468 196.284 20.6057L194.491 20.1455C190.19 19.0188 188.302 17.0669 188.302 13.782C188.302 10.0527 191.174 7.62476 195.586 7.62476C199.744 7.62476 202.6 10.021 202.822 13.7026H200.648C200.331 11.116 198.458 9.6084 195.586 9.6084C192.412 9.6084 190.524 11.1636 190.524 13.782C190.524 15.9243 191.888 17.1938 195.062 18.019L196.919 18.511C201.378 19.6694 203.219 21.5737 203.219 25.0015C203.219 28.9053 200.188 31.4761 195.586 31.4761C191.031 31.4761 188 29.0005 187.731 25.0491Z" fill="#A1A4A4"/>
</g>
<defs>
<clipPath id="clip0_4061_17583">
<rect width="206" height="39" fill="white"/>
</clipPath>
<clipPath id="clip1_4061_17583">
<rect width="114" height="24" fill="white" transform="translate(0 7.5)"/>
</clipPath>
</defs>
</svg>
