<svg width="35" height="27" viewBox="0 0 35 27" fill="none" xmlns="http://www.w3.org/2000/svg">
<g clip-path="url(#clip0_4063_17608)">
<path opacity="0.75" d="M15.1153 0.361328C15.4766 2.73438 15.7598 3.14453 18.2208 3.48633C18.4356 3.51562 18.6114 3.67188 18.6114 3.88672C18.6114 4.0918 18.4454 4.25781 18.2208 4.30664C15.7598 4.62891 15.5743 5.01953 15.1153 7.43164C15.086 7.63672 14.9005 7.77344 14.7149 7.77344C14.5001 7.77344 14.3341 7.62695 14.3048 7.41211C13.963 5.0293 13.67 4.56055 11.1993 4.30664C10.9649 4.26758 10.8184 4.10156 10.8184 3.88672C10.8184 3.67188 10.9747 3.51562 11.1993 3.48633C13.67 3.14453 13.836 2.74414 14.3048 0.361328C14.3438 0.146484 14.5098 0 14.7149 0C14.9102 0 15.086 0.146484 15.1153 0.361328Z" fill="white"/>
<path opacity="0.25" d="M10.9943 8.49414L14.3761 12.4468L9.95919 17.7324C9.59737 18.165 9.35715 18.6194 9.22905 19.0703H2.56661C1.02364 19.0703 0.496299 17.5273 1.44356 16.4042L8.22091 8.49414C8.66036 7.97657 9.09981 7.74219 9.59786 7.74219C10.1056 7.74219 10.5451 7.97657 10.9943 8.49414Z" fill="white"/>
<path opacity="0.5" d="M12.1473 21.3867H31.5027C33.1141 21.3867 33.7781 19.9219 32.6746 18.5938L23.2898 7.36328C22.8504 6.83594 22.3523 6.5625 21.825 6.5625C21.2976 6.5625 20.8094 6.83594 20.3699 7.36328L10.9851 18.5938C9.87184 19.9121 10.5457 21.3867 12.1473 21.3867Z" fill="white"/>
</g>
<defs>
<clipPath id="clip0_4063_17608">
<rect width="34.5476" height="26.0449" fill="white"/>
</clipPath>
</defs>
</svg>
