<svg width="100" height="100" viewBox="0 0 100 100" fill="none" xmlns="http://www.w3.org/2000/svg">
<path d="M50 100C48.8978 100 47.9459 99.6322 47.1443 98.8967C46.3761 98.1946 45.8918 97.2584 45.6914 96.0883C44.8898 90.5383 44.0381 85.7406 43.1363 81.6951C42.2679 77.6496 41.1991 74.2227 39.9299 71.4142C38.6941 68.5724 37.1409 66.2153 35.2705 64.343C33.4001 62.4373 31.0621 60.8826 28.2565 59.679C25.4509 58.4754 22.0608 57.4724 18.0862 56.67C14.145 55.8342 9.46894 55.0485 4.05812 54.3129C2.85571 54.1792 1.87041 53.7111 1.1022 52.9087C0.367401 52.1063 0 51.1367 0 50C0 48.8633 0.384102 47.8937 1.1523 47.0913C1.92051 46.2889 2.88911 45.8041 4.05812 45.6369C10.5711 44.9348 16.0488 44.099 20.491 43.1294C24.9332 42.1264 28.5905 40.7556 31.4629 39.0171C34.3687 37.2785 36.7067 34.9549 38.477 32.0461C40.2472 29.104 41.6667 25.3427 42.7355 20.7623C43.8043 16.1819 44.7896 10.5483 45.6914 3.86158C45.8918 2.69141 46.3761 1.75527 47.1443 1.05316C47.9459 0.351053 48.8978 0 50 0C51.0688 0 51.9873 0.351053 52.7555 1.05316C53.5571 1.75527 54.0581 2.69141 54.2585 3.86158C55.1937 10.5483 56.1957 16.1819 57.2645 20.7623C58.3667 25.3093 59.8029 29.0538 61.5731 31.996C63.3434 34.9047 65.6647 37.2284 68.5371 38.9669C71.4095 40.7054 75.0668 42.0762 79.509 43.0792C83.9512 44.0488 89.4289 44.9014 95.9419 45.6369C97.0775 45.8041 98.0294 46.2889 98.7976 47.0913C99.5992 47.8937 100 48.8633 100 50C100 51.1367 99.5992 52.1063 98.7976 52.9087C98.0294 53.7111 97.0608 54.1792 95.8918 54.3129C89.4122 55.0485 83.9345 55.9178 79.4589 56.9208C75.0167 57.8903 71.3427 59.2444 68.4369 60.9829C65.5645 62.7215 63.2432 65.0619 61.4729 68.004C59.7361 70.9127 58.3166 74.6573 57.2144 79.2377C56.1456 83.7847 55.1603 89.4015 54.2585 96.0883C54.0915 97.2584 53.6072 98.1946 52.8056 98.8967C52.0374 99.6322 51.1022 100 50 100Z" fill="#A2A2A6" fill-opacity="0.5"/>
</svg>
