<svg width="1200" height="152" viewBox="0 0 1200 152" fill="none" xmlns="http://www.w3.org/2000/svg">
<path d="M29.4678 55.0195C36.3457 55.0195 41.9198 60.369 41.9199 66.9668V71.0449C41.9199 74.6 39.9111 77.704 36.9219 79.3662C36.1219 79.8148 35.2497 80.1575 34.3281 80.3779V80.6621H41.9199V85.0322C41.9199 91.63 36.3429 96.9795 29.4648 96.9795C22.587 96.9793 17.0127 91.6299 17.0127 85.0322V80.9541C17.0127 77.399 19.0225 74.295 22.0117 72.6328C22.8115 72.1843 23.683 71.8415 24.6045 71.6211V71.3369H17.0127V66.9668C17.0128 60.3691 22.5899 55.0196 29.4678 55.0195ZM88.4512 80.7959L91.4062 72.1289H95.0967L90.2217 85.0469C89.526 86.8881 88.6034 88.2263 87.4561 89.0615C86.214 89.9214 84.6918 90.3206 83.1689 90.1846V87.0889C83.9501 87.1452 84.728 86.9445 85.376 86.5205C85.9927 86.0205 86.4444 85.3572 86.6738 84.6123L81.1924 72.127H84.9629L88.4512 80.7959ZM29.4678 63.1777C28.1254 63.1778 27.0381 64.2221 27.0381 65.5098V86.4893C27.0381 87.7769 28.1254 88.8212 29.4678 88.8213C30.8102 88.8213 31.8984 87.7769 31.8984 86.4893V65.5098C31.8984 64.2221 30.8102 63.1777 29.4678 63.1777ZM71.7539 71.7666C72.5831 71.726 73.4102 71.8749 74.168 72.2021C74.9258 72.5293 75.5926 73.0254 76.1133 73.6494V72.1289H79.5635V85.0254H76.1133V83.5039C75.0792 84.7591 73.6259 85.3867 71.7539 85.3867C70.8876 85.3934 70.0297 85.2203 69.2383 84.8799C68.4472 84.5395 67.7407 84.0391 67.167 83.4131C65.9355 82.0821 65.2549 80.3608 65.2549 78.5771C65.2549 76.7931 65.9353 75.0713 67.167 73.7402C67.7405 73.114 68.447 72.6141 69.2383 72.2734C70.0297 71.9328 70.8876 71.76 71.7539 71.7666ZM102.562 71.7637C103.469 71.7385 104.371 71.9003 105.208 72.2383C106.045 72.5765 106.798 73.0833 107.416 73.7246C108.691 75.0342 109.378 76.7772 109.327 78.5732C109.324 79.0322 109.28 79.4902 109.194 79.9414H99.1113C99.5743 81.5571 100.831 82.3652 102.882 82.3652C103.452 82.4004 104.023 82.3018 104.545 82.0771C105.067 81.8527 105.524 81.509 105.878 81.0762L108.659 82.624C107.339 84.4637 105.396 85.3838 102.829 85.3838C100.618 85.3834 98.8442 84.7385 97.5068 83.4492C96.2232 82.1322 95.5063 80.3928 95.501 78.585C95.4967 76.7774 96.2036 75.0353 97.4805 73.7119C98.1413 73.0659 98.9342 72.5589 99.8086 72.2236C100.684 71.8883 101.621 71.7318 102.562 71.7637ZM144.366 71.7637C145.273 71.7384 146.177 71.9003 147.014 72.2383C147.85 72.5765 148.603 73.0834 149.222 73.7246C150.497 75.0342 151.183 76.7772 151.133 78.5732C151.13 79.0322 151.086 79.4902 151 79.9414H140.917C141.38 81.5571 142.637 82.3652 144.688 82.3652C145.258 82.4004 145.828 82.3016 146.35 82.0771C146.871 81.8527 147.329 81.509 147.683 81.0762L150.464 82.624C149.144 84.4638 147.2 85.3838 144.634 85.3838C142.424 85.3834 140.65 84.7385 139.312 83.4492C138.028 82.1324 137.311 80.3936 137.306 78.5859C137.301 76.7781 138.008 75.0354 139.285 73.7119C139.946 73.0659 140.739 72.5589 141.614 72.2236C142.488 71.8885 143.426 71.7319 144.366 71.7637ZM168.918 71.7617C169.851 71.741 170.779 71.9056 171.645 72.2451C172.509 72.5844 173.293 73.0919 173.945 73.7354C175.092 74.838 175.807 76.2894 175.97 77.8428C176.132 79.3962 175.733 80.9563 174.839 82.2578C173.945 83.5592 172.61 84.5217 171.063 84.9824C169.516 85.4427 167.852 85.3728 166.353 84.7842C164.853 84.1956 163.612 83.124 162.838 81.7529C162.064 80.3816 161.807 78.7943 162.108 77.2607C162.411 75.7268 163.254 74.3402 164.495 73.3379C165.736 72.3357 167.3 71.779 168.918 71.7617ZM182.986 81.2471V85.0322H179.042V81.2471H182.986ZM57.1543 81.6182H64.2949V85.0225H53.4639V66.9668H57.1543V81.6182ZM136.071 69.7598L128.277 81.6182H136.221V85.0225H123.603V82.1797L131.396 70.3721H123.8V66.9668H136.071V69.7598ZM119.253 75.5791C118.265 75.4445 117.261 75.665 116.431 76.1982C115.602 76.7315 115.188 77.6173 115.188 78.8555V85.0205H111.737V72.123H115.188V74.3418C115.471 73.5598 116.036 72.9011 116.778 72.4854C117.531 72.0693 118.386 71.8556 119.253 71.8662V75.5791ZM161.054 75.5791C160.066 75.4445 159.062 75.665 158.231 76.1982C157.403 76.7315 156.988 77.6173 156.988 78.8555V85.0205H153.538V72.123H156.988V74.3418C157.272 73.5598 157.836 72.9011 158.579 72.4854C159.332 72.0695 160.186 71.8556 161.054 71.8662V75.5791ZM72.3955 74.9395C71.9054 74.9243 71.4173 75.0075 70.9619 75.1826C70.5063 75.3578 70.0932 75.622 69.748 75.958C69.0767 76.6765 68.7042 77.6091 68.7041 78.5762C68.7041 79.5434 69.0766 80.4763 69.748 81.1943C70.0932 81.5307 70.5063 81.7953 70.9619 81.9707C71.4172 82.1458 71.9056 82.2279 72.3955 82.2129C72.8876 82.2269 73.3781 82.1449 73.8359 81.9697C74.2937 81.7946 74.7089 81.5301 75.0566 81.1943V81.1953C75.7359 80.4806 76.1123 79.5458 76.1123 78.5762C76.1122 77.6067 75.7358 76.6726 75.0566 75.958C74.7085 75.6223 74.2924 75.3588 73.835 75.1836C73.3776 75.0083 72.8875 74.9253 72.3955 74.9395ZM168.918 75.0127C168.439 74.9996 167.962 75.082 167.518 75.2549C167.074 75.4279 166.672 75.6877 166.337 76.0176C165.675 76.7147 165.307 77.6259 165.307 78.5713C165.307 79.5167 165.675 80.4278 166.337 81.125C166.672 81.4549 167.074 81.715 167.518 81.8877C167.906 82.039 168.32 82.1206 168.738 82.1299H169.098C169.517 82.1199 169.932 82.0378 170.322 81.8867C170.768 81.7138 171.174 81.4544 171.513 81.125C172.183 80.4319 172.556 79.5189 172.556 78.5713C172.556 77.6236 172.182 76.7106 171.513 76.0176C171.174 75.688 170.768 75.4288 170.322 75.2559C169.876 75.0834 169.398 75.0005 168.918 75.0127ZM102.561 74.7559C101.736 74.7251 100.925 74.9664 100.261 75.4395C99.6372 75.923 99.2108 76.6037 99.0586 77.3613L105.878 77.3604C105.743 76.5823 105.308 75.8827 104.661 75.4014C104.052 74.973 103.315 74.7464 102.561 74.7559ZM144.367 74.7559C143.542 74.7249 142.731 74.9662 142.067 75.4395C141.443 75.9227 141.016 76.6033 140.863 77.3613L147.683 77.3604C147.549 76.5824 147.115 75.8823 146.467 75.4014C145.858 74.9729 145.121 74.7461 144.367 74.7559Z" fill="black"/>
<path d="M650.782 62.6621C651.583 62.6629 652.345 63.0306 652.863 63.668L668.781 83.5293C668.821 83.5802 668.882 83.6094 668.945 83.6094C669.063 83.6091 669.158 83.5097 669.158 83.3867V68.4814C669.158 68.426 669.139 68.3718 669.104 68.3301C669.025 68.2392 668.89 68.2307 668.803 68.3125L663.537 73.0732C663.344 73.2465 663.063 73.2655 662.851 73.1182C662.589 72.9365 662.518 72.5678 662.692 72.2949L668.042 64.0166C668.507 63.2273 669.31 62.7275 670.189 62.668L670.367 62.6621C671.873 62.6621 673.094 63.9345 673.094 65.5039V86.499C673.092 88.0683 671.871 89.3396 670.365 89.3389H669.809C669.007 89.338 668.246 88.9705 667.728 88.333L651.812 68.4678C651.772 68.4169 651.711 68.3877 651.648 68.3877C651.53 68.3879 651.436 68.4874 651.436 68.6104V83.5195C651.435 83.575 651.454 83.6291 651.489 83.6709C651.568 83.7618 651.703 83.7702 651.79 83.6885L657.057 78.9277C657.25 78.7546 657.53 78.7356 657.742 78.8828C658.004 79.0645 658.075 79.4332 657.9 79.7061L652.551 87.9844C652.054 88.8264 651.174 89.3388 650.227 89.3389C648.721 89.3389 647.5 88.0665 647.5 86.4971V65.5039C647.5 63.9345 648.721 62.6621 650.227 62.6621H650.782ZM709.148 66.3662C714.368 66.3663 718.002 69.8589 718.002 74.2334V76.5498C718.002 76.8741 717.749 77.1375 717.438 77.1377H706.079C705.621 77.1376 705.304 76.8433 705.304 76.5127V76.4766C705.304 76.1095 705.551 75.8149 705.868 75.7412L713.776 74.1416C714.034 74.0898 714.213 73.8443 714.192 73.5723C713.946 71.2195 711.583 69.7853 709.149 69.7852C706.469 69.7852 703.999 71.4763 703.964 73.9395L703.929 77.2119C703.894 80.153 706.433 82.2119 709.149 82.2119C711.865 82.2117 713.522 80.447 713.875 79.2705C713.946 79.0138 714.157 78.8664 714.404 78.8662H717.156C717.509 78.8664 717.755 79.1235 717.72 79.4912C717.367 83.0204 713.981 85.6307 709.149 85.6309C703.682 85.6309 700.191 82.2119 700.19 77.2119V74.6006C700.191 69.8582 703.682 66.3652 709.149 66.3652L709.148 66.3662ZM728.83 66.3652C733.769 66.3653 736.696 69.1965 736.696 73.4609V84.6016C736.696 84.9319 736.449 85.1893 736.132 85.1895H733.592C733.274 85.1893 733.134 84.8591 733.31 84.6016L734.368 82.873C734.545 82.6162 734.615 82.2848 734.403 82.0645C734.157 81.8068 733.875 81.8068 733.593 82.0645L731.864 83.6084C730.701 84.6375 728.83 85.5205 726.644 85.5205C723.223 85.5204 720.225 83.7924 720.225 80.4834V79.9688C720.225 76.7334 723.576 74.5283 726.892 74.5283H730.806C731.089 74.5283 731.406 74.6756 731.441 74.9697C731.512 75.3367 731.37 75.6682 730.982 75.7783L727.208 76.8447C724.599 77.4695 723.964 78.536 723.964 79.7861C723.964 81.22 725.269 82.1025 727.526 82.1025C730.419 82.1025 732.747 80.4476 732.747 77.1758V73.9766C732.747 71.3296 731.124 69.7852 728.726 69.7852C726.715 69.7852 724.846 70.9618 724.563 72.5791C724.528 72.8732 724.316 73.0938 724.034 73.0938H721.178C720.861 73.0938 720.613 72.8732 720.613 72.5791C720.613 69.0497 724.422 66.3664 728.831 66.3662L728.83 66.3652ZM690.916 66.4395C695.078 66.4396 697.653 69.0132 697.653 73.1309V84.6016C697.653 84.9321 697.406 85.1903 697.089 85.1904H694.267C693.95 85.1903 693.702 84.9321 693.702 84.6016V73.498C693.702 71.8808 692.679 69.749 689.822 69.749C688.482 69.7492 684.92 70.4476 684.92 74.8955V84.6016C684.92 84.9322 684.673 85.1904 684.355 85.1904H681.534C681.217 85.1904 680.97 84.9322 680.97 84.6016V67.3945C680.97 67.0641 681.217 66.8066 681.534 66.8066H684.25C684.568 66.8068 684.708 67.137 684.532 67.3945L683.403 69.1592C683.192 69.4531 683.227 69.7474 683.474 69.9678C683.72 70.1889 684.074 70.0791 684.25 69.9316L686.366 68.0205C687.49 66.9867 688.801 66.5019 690.559 66.4453L690.916 66.4395ZM742.765 66.8066C743.082 66.8067 743.223 67.137 743.047 67.3945L741.918 69.1592C741.706 69.4533 741.811 69.8219 742.059 70.0059C742.27 70.1897 742.588 70.0791 742.765 69.9316L744.316 68.5352C745.269 67.6893 746.609 66.8067 747.984 66.8066H751.936C752.253 66.8066 752.5 67.0641 752.5 67.3945V69.7119C752.5 70.0423 752.253 70.2998 751.936 70.2998H748.268C745.058 70.2998 743.576 71.9911 743.576 75.7783V84.6016C743.576 84.9322 743.329 85.1904 743.012 85.1904H740.119C739.802 85.1904 739.555 84.9322 739.555 84.6016V67.3945C739.555 67.0641 739.802 66.8066 740.119 66.8066H742.765Z" fill="black"/>
<path fill-rule="evenodd" clip-rule="evenodd" d="M256.974 92.7713C266.915 92.7713 274.974 85.2626 274.974 75.9999C274.974 66.7373 266.915 59.2285 256.974 59.2285C247.033 59.2285 238.974 66.7373 238.974 75.9999C238.974 85.2626 247.033 92.7713 256.974 92.7713ZM247.769 67.2331H266.178V71.0447H259.019V74.8565H254.928V71.0447H247.769V67.2331ZM254.928 74.8565V82.4798H250.837V74.8565H254.928ZM259.019 74.8565H263.11V82.4798H259.02V86.2915H254.929L254.928 82.4798H259.02L259.019 74.8565Z" fill="#00B988"/>
<path d="M346.583 69.5801H340.706V72.7607L343.663 70.8535L344.83 72.4531L340.706 75.0898V77.1523L343.663 75.2441L344.83 76.8438L340.706 79.4814V84.7207H337.944V81.0049L334.986 82.8896L333.82 81.291L337.944 78.6543V76.6143L334.986 78.499L333.82 76.9004L337.944 74.2627V69.5801H332.04V67.2793H346.583V69.5801ZM306.606 67.292C310.154 67.2921 313.067 68.8711 313.702 72.5469H310.551C310.048 70.4746 308.645 69.5615 306.526 69.5615C304.462 69.5616 303.271 70.425 303.271 71.7568C303.271 76.1727 314.179 72.6947 314.179 79.5527C314.179 82.8584 311.293 84.7089 307.348 84.709C303.35 84.709 300.596 83.0068 299.854 79.5039H302.952C303.455 81.4033 304.965 82.4395 307.374 82.4395C309.836 82.4394 311.134 81.4277 311.134 79.9229C311.134 75.1864 300.226 78.714 300.226 71.9795C300.226 69.4632 302.502 67.292 306.606 67.292ZM353.955 67.292C358.426 67.292 361.025 70.5205 361.025 76.0137C361.025 81.6109 358.37 84.709 353.955 84.709C349.457 84.7088 346.858 81.4806 346.858 76.0137C346.858 70.4164 349.513 67.2921 353.955 67.292ZM285.997 77.8662C285.997 80.7336 287.671 82.4442 290.451 82.4443C293.259 82.4443 294.905 80.7085 294.905 77.8662V67.2773H297.929V77.8662C297.929 82.1171 295.067 84.708 290.451 84.708C285.835 84.7079 282.974 82.117 282.974 77.8662V67.2773H285.997V77.8662ZM322.748 67.3252C328.485 67.3253 332.041 70.5382 332.041 75.8838C332.041 81.2296 328.485 84.3925 322.748 84.3926H316.472V67.3252H322.748ZM353.955 69.6611C351.357 69.6613 349.904 71.9005 349.904 76.0137C349.904 80.0227 351.357 82.3397 353.955 82.3398C356.554 82.3398 357.979 80.1009 357.979 76.0137C357.979 71.9524 356.526 69.6611 353.955 69.6611ZM319.488 82.1084H322.748C326.654 82.1083 328.97 79.799 328.97 75.8838C328.97 71.9186 326.654 69.6094 322.748 69.6094H319.488V82.1084Z" fill="black"/>
<g clip-path="url(#clip0_4100_17820)">
<path d="M569.683 74.854L566.871 75.0266C566.822 74.7869 566.72 74.5712 566.561 74.3793C566.403 74.1828 566.193 74.027 565.933 73.912C565.678 73.7921 565.374 73.7322 565.017 73.7322C564.541 73.7322 564.141 73.8328 563.814 74.0342C563.487 74.2307 563.323 74.4944 563.323 74.8252C563.323 75.0889 563.429 75.3119 563.64 75.494C563.852 75.6761 564.215 75.8224 564.73 75.9326L566.734 76.3354C567.81 76.5559 568.614 76.9106 569.143 77.3996C569.67 77.8887 569.936 78.531 569.936 79.3269C569.936 80.0507 569.721 80.686 569.294 81.2325C568.871 81.779 568.289 82.2056 567.549 82.5124C566.813 82.8145 565.965 82.9655 565.004 82.9655C563.538 82.9655 562.369 82.661 561.499 82.0523C560.634 81.4386 560.126 80.6044 559.978 79.5497L562.999 79.3916C563.091 79.8374 563.312 80.1778 563.663 80.4127C564.014 80.6428 564.462 80.7579 565.011 80.7579C565.549 80.7579 565.982 80.6548 566.309 80.4486C566.641 80.2377 566.809 79.9669 566.813 79.636C566.809 79.358 566.69 79.1302 566.46 78.9529C566.229 78.7707 565.874 78.6317 565.393 78.5358L563.474 78.1547C562.394 77.939 561.588 77.565 561.059 77.0329C560.536 76.5008 560.273 75.8224 560.273 74.9979C560.273 74.2883 560.466 73.677 560.851 73.1641C561.24 72.6511 561.786 72.2557 562.487 71.9776C563.193 71.6995 564.02 71.5605 564.968 71.5605C566.367 71.5605 567.467 71.8553 568.269 72.445C569.077 73.0346 569.549 73.8377 569.683 74.854Z" fill="black"/>
<path d="M559.509 71.7049V74.0061H552.84V71.7049H559.509ZM554.354 69.0586H557.425V79.3561C557.425 79.6391 557.468 79.8596 557.555 80.0177C557.642 80.1712 557.761 80.2791 557.916 80.3413C558.074 80.4036 558.257 80.4348 558.463 80.4348C558.607 80.4348 558.752 80.4229 558.896 80.3989C559.04 80.3701 559.151 80.3485 559.228 80.3342L559.71 82.6137C559.557 82.6616 559.341 82.7168 559.062 82.7792C558.783 82.8462 558.444 82.8869 558.046 82.9013C557.304 82.9301 556.656 82.8318 556.099 82.6065C555.546 82.3813 555.115 82.0313 554.808 81.5566C554.5 81.082 554.349 80.4828 554.354 79.7589V69.0586Z" fill="black"/>
<path d="M544.963 76.3641V82.7498H541.891V71.7043H544.818V73.653H544.948C545.193 73.0107 545.604 72.5025 546.181 72.1286C546.757 71.7499 547.457 71.5605 548.279 71.5605C549.048 71.5605 549.718 71.7283 550.29 72.0639C550.862 72.3995 551.308 72.8788 551.624 73.5021C551.941 74.1205 552.1 74.8588 552.1 75.717V82.7498H549.029V76.2635C549.033 75.5875 548.861 75.0602 548.51 74.6814C548.158 74.2979 547.675 74.1061 547.061 74.1061C546.647 74.1061 546.281 74.1948 545.964 74.3721C545.652 74.5496 545.407 74.8084 545.229 75.1488C545.056 75.4844 544.967 75.8895 544.963 76.3641Z" fill="black"/>
<path d="M535.705 82.9655C534.566 82.9655 533.585 82.7354 532.763 82.2752C531.946 81.8102 531.316 81.1533 530.874 80.3048C530.432 79.4515 530.211 78.4423 530.211 77.2773C530.211 76.1412 530.432 75.144 530.874 74.2859C531.316 73.4278 531.939 72.759 532.742 72.2796C533.549 71.8002 534.496 71.5605 535.583 71.5605C536.313 71.5605 536.993 71.678 537.623 71.9129C538.258 72.143 538.81 72.4906 539.281 72.9555C539.757 73.4206 540.127 74.0055 540.392 74.7102C540.656 75.4101 540.788 76.2299 540.788 77.1696V78.0108H531.437V76.1124H537.897C537.897 75.6714 537.801 75.2807 537.609 74.9403C537.416 74.6 537.15 74.3339 536.808 74.1421C536.472 73.9455 536.08 73.8472 535.633 73.8472C535.167 73.8472 534.753 73.9551 534.393 74.1709C534.037 74.3818 533.758 74.667 533.556 75.0266C533.355 75.3814 533.251 75.7768 533.246 76.2131V78.018C533.246 78.5646 533.347 79.0368 533.549 79.4346C533.756 79.8326 534.047 80.1395 534.422 80.3551C534.797 80.5709 535.241 80.6788 535.756 80.6788C536.097 80.6788 536.409 80.6309 536.693 80.5349C536.977 80.439 537.219 80.2953 537.421 80.1035C537.623 79.9118 537.777 79.6767 537.883 79.3988L540.723 79.5857C540.579 80.2665 540.284 80.8609 539.837 81.3691C539.394 81.8724 538.822 82.2656 538.121 82.5484C537.424 82.8265 536.618 82.9655 535.705 82.9655Z" fill="black"/>
<path d="M529.678 71.7049V74.0061H523.009V71.7049H529.678ZM524.523 69.0586H527.594V79.3561C527.594 79.6391 527.638 79.8596 527.724 80.0177C527.811 80.1712 527.931 80.2791 528.085 80.3413C528.243 80.4036 528.426 80.4348 528.633 80.4348C528.777 80.4348 528.921 80.4229 529.065 80.3989C529.21 80.3701 529.32 80.3485 529.397 80.3342L529.88 82.6137C529.726 82.6616 529.51 82.7168 529.231 82.7792C528.952 82.8462 528.613 82.8869 528.215 82.9013C527.474 82.9301 526.825 82.8318 526.268 82.6065C525.715 82.3813 525.285 82.0313 524.977 81.5566C524.67 81.082 524.518 80.4828 524.523 79.7589V69.0586Z" fill="black"/>
<path d="M515.131 76.3641V82.7498H512.06V71.7043H514.987V73.653H515.117C515.362 73.0107 515.773 72.5025 516.35 72.1286C516.926 71.7499 517.626 71.5605 518.448 71.5605C519.217 71.5605 519.887 71.7283 520.46 72.0639C521.032 72.3995 521.476 72.8788 521.793 73.5021C522.111 74.1205 522.269 74.8588 522.269 75.717V82.7498H519.198V76.2635C519.203 75.5875 519.029 75.0602 518.679 74.6814C518.328 74.2979 517.845 74.1061 517.229 74.1061C516.816 74.1061 516.451 74.1948 516.133 74.3721C515.821 74.5496 515.576 74.8084 515.398 75.1488C515.225 75.4844 515.136 75.8895 515.131 76.3641Z" fill="black"/>
<path d="M507.43 82.7503V71.7048H510.501V82.7503H507.43ZM508.973 70.281C508.516 70.281 508.124 70.1299 507.797 69.828C507.475 69.5211 507.314 69.1544 507.314 68.7277C507.314 68.3058 507.475 67.9439 507.797 67.6419C508.124 67.3351 508.516 67.1816 508.973 67.1816C509.429 67.1816 509.819 67.3351 510.141 67.6419C510.468 67.9439 510.631 68.3058 510.631 68.7277C510.631 69.1544 510.468 69.5211 510.141 69.828C509.819 70.1299 509.429 70.281 508.973 70.281Z" fill="black"/>
<path d="M429.5 69.25C429.5 63.0368 434.55 58 440.78 58H483.032C486.921 58 490.536 59.9982 492.598 63.2875L500.564 76L492.598 88.7125C490.536 92.0018 486.921 94 483.032 94H440.78C434.55 94 429.5 88.9631 429.5 82.75V69.25Z" fill="#4DD092"/>
<path d="M475.842 82.7505V71.7051H478.82V73.6323H478.935C479.137 72.9467 479.476 72.429 479.952 72.079C480.428 71.7243 480.976 71.5469 481.596 71.5469C481.749 71.5469 481.915 71.5564 482.093 71.5757C482.271 71.5948 482.427 71.6212 482.562 71.6548V74.373C482.418 74.3298 482.218 74.2914 481.963 74.2579C481.709 74.2244 481.475 74.2076 481.264 74.2076C480.812 74.2076 480.408 74.3058 480.053 74.5024C479.702 74.6942 479.423 74.9626 479.216 75.3078C479.014 75.653 478.913 76.0508 478.913 76.5015V82.7505H475.842Z" fill="#21201C"/>
<path d="M468.124 82.9583C467.418 82.9583 466.788 82.8361 466.235 82.5916C465.683 82.3423 465.245 81.9756 464.923 81.4914C464.606 81.0023 464.447 80.3935 464.447 79.6648C464.447 79.0511 464.56 78.5358 464.786 78.1187C465.012 77.7017 465.32 77.3661 465.709 77.112C466.098 76.8579 466.541 76.6661 467.036 76.5368C467.536 76.4073 468.06 76.3161 468.608 76.2635C469.252 76.1963 469.771 76.134 470.165 76.0765C470.559 76.0142 470.845 75.9231 471.023 75.8033C471.201 75.6833 471.29 75.506 471.29 75.2711V75.2279C471.29 74.7725 471.146 74.4202 470.857 74.1709C470.574 73.9216 470.17 73.7969 469.646 73.7969C469.093 73.7969 468.653 73.9191 468.326 74.1637C468 74.4033 467.783 74.7054 467.677 75.0698L464.837 74.8396C464.981 74.1684 465.264 73.5884 465.687 73.0994C466.11 72.6056 466.656 72.2269 467.324 71.9632C467.997 71.6948 468.776 71.5605 469.66 71.5605C470.276 71.5605 470.864 71.6324 471.427 71.7762C471.994 71.9201 472.496 72.143 472.934 72.445C473.376 72.747 473.724 73.1353 473.979 73.61C474.234 74.0798 474.361 74.643 474.361 75.2998V82.7498H471.448V81.2181H471.362C471.184 81.5633 470.946 81.8677 470.648 82.1314C470.35 82.3902 469.992 82.594 469.574 82.7426C469.156 82.8864 468.672 82.9583 468.124 82.9583ZM469.004 80.8442C469.456 80.8442 469.855 80.7555 470.201 80.5781C470.547 80.3958 470.819 80.1514 471.016 79.8446C471.213 79.5378 471.311 79.1902 471.311 78.8018V77.6297C471.215 77.692 471.083 77.7496 470.915 77.8024C470.751 77.8503 470.566 77.8958 470.36 77.939C470.153 77.9773 469.946 78.0133 469.74 78.0468C469.533 78.0755 469.345 78.102 469.177 78.1259C468.817 78.1787 468.502 78.2625 468.233 78.3776C467.963 78.4927 467.754 78.6485 467.605 78.845C467.456 79.0368 467.382 79.2765 467.382 79.5641C467.382 79.9812 467.533 80.3 467.836 80.5205C468.144 80.7363 468.533 80.8442 469.004 80.8442Z" fill="#21201C"/>
<path d="M458.781 82.9655C457.642 82.9655 456.662 82.7354 455.84 82.2752C455.022 81.8102 454.393 81.1533 453.95 80.3048C453.508 79.4515 453.287 78.4423 453.287 77.2773C453.287 76.1412 453.508 75.144 453.95 74.2859C454.393 73.4278 455.015 72.759 455.818 72.2796C456.625 71.8002 457.572 71.5605 458.659 71.5605C459.389 71.5605 460.07 71.678 460.699 71.9129C461.334 72.143 461.887 72.4906 462.358 72.9555C462.833 73.4206 463.204 74.0055 463.468 74.7102C463.732 75.4101 463.864 76.2299 463.864 77.1696V78.0108H454.513V76.1124H460.973C460.973 75.6714 460.877 75.2807 460.685 74.9403C460.493 74.6 460.226 74.3339 459.884 74.1421C459.548 73.9455 459.156 73.8472 458.709 73.8472C458.243 73.8472 457.83 73.9551 457.469 74.1709C457.113 74.3818 456.835 74.667 456.633 75.0266C456.431 75.3814 456.327 75.7768 456.323 76.2131V78.018C456.323 78.5646 456.424 79.0368 456.625 79.4346C456.832 79.8326 457.123 80.1395 457.498 80.3551C457.873 80.5709 458.317 80.6788 458.832 80.6788C459.173 80.6788 459.485 80.6309 459.769 80.5349C460.053 80.439 460.295 80.2953 460.497 80.1035C460.699 79.9118 460.853 79.6767 460.959 79.3988L463.8 79.5857C463.655 80.2665 463.36 80.8609 462.913 81.3691C462.47 81.8724 461.898 82.2656 461.197 82.5484C460.5 82.8265 459.695 82.9655 458.781 82.9655Z" fill="#21201C"/>
<path d="M445.078 76.3641V82.7498H442.006V71.7043H444.933V73.653H445.063C445.308 73.0107 445.719 72.5025 446.296 72.1286C446.873 71.7499 447.572 71.5605 448.394 71.5605C449.163 71.5605 449.834 71.7283 450.406 72.0639C450.978 72.3995 451.423 72.8788 451.74 73.5021C452.057 74.1205 452.216 74.8588 452.216 75.717V82.7498H449.144V76.2635C449.149 75.5875 448.976 75.0602 448.625 74.6814C448.274 74.2979 447.791 74.1061 447.176 74.1061C446.762 74.1061 446.397 74.1948 446.08 74.3721C445.767 74.5496 445.522 74.8084 445.344 75.1488C445.171 75.4844 445.082 75.8895 445.078 76.3641Z" fill="#21201C"/>
</g>
<path fill-rule="evenodd" clip-rule="evenodd" d="M860.665 62.8657C857.677 60.6716 854.104 59.5117 850.333 59.5117C840.959 59.5117 833.333 66.8148 833.333 75.7915C833.333 78.6258 834.106 81.4178 835.568 83.8659L836.305 85.0985C836.552 85.5124 837.143 85.588 837.495 85.2508L839.178 83.639C839.433 83.3951 839.469 83.0149 839.272 82.7262C838.656 81.8246 838.164 80.8526 837.807 79.836L837.803 79.8399C837.347 78.5425 837.111 77.1738 837.111 75.7915C837.111 68.8097 843.042 63.1294 850.333 63.1294C852.527 63.1294 854.635 63.6341 856.53 64.6027L853.677 67.3345C852.613 66.948 851.478 66.7472 850.333 66.7472C845.125 66.7472 840.889 70.8044 840.889 75.7915C840.889 75.9424 840.931 76.6274 840.944 76.7452C841.059 77.7847 841.362 78.7962 841.834 79.7323C842.061 80.1814 842.682 80.2834 843.051 79.9306L844.759 78.2949C844.943 78.118 845.02 77.8623 844.96 77.6187L844.817 77.031C844.717 76.6219 844.666 76.2048 844.666 75.7915C844.666 72.7992 847.209 70.3649 850.333 70.3649C851.317 70.3649 852.287 70.6118 853.138 71.0791L853.89 71.4917C854.186 71.654 854.559 71.6065 854.8 71.3755L861.766 64.7049C862.089 64.3958 862.054 63.8851 861.692 63.6191L860.665 62.8657Z" fill="url(#paint0_linear_4100_17820)"/>
<path fill-rule="evenodd" clip-rule="evenodd" d="M865.072 68.134L864.336 66.9014C864.088 66.4875 863.498 66.4118 863.146 66.7492L861.462 68.361C861.208 68.6051 861.171 68.9854 861.369 69.274C861.985 70.1763 862.477 71.1475 862.834 72.1642L862.838 72.1598C863.294 73.4573 863.53 74.8262 863.53 76.2083C863.53 83.1903 857.599 88.8705 850.308 88.8705C848.114 88.8705 846.006 88.3656 844.111 87.3971L846.964 84.6654C848.028 85.0518 849.163 85.2527 850.308 85.2527C855.515 85.2527 859.752 81.1953 859.752 76.2083C859.752 75.8967 859.733 75.5842 859.699 75.2726C859.585 74.2242 859.283 73.2078 858.807 72.2671C858.58 71.8178 857.959 71.7158 857.591 72.0686L855.882 73.7049C855.697 73.8818 855.621 74.1374 855.681 74.3811L855.824 74.9687C855.924 75.3783 855.974 75.7954 855.974 76.2083C855.974 79.2005 853.432 81.6348 850.308 81.6348C849.324 81.6348 848.354 81.3879 847.502 80.9206L846.75 80.5082C846.455 80.3458 846.082 80.3935 845.841 80.6245L838.875 87.2949C838.552 87.604 838.587 88.1146 838.949 88.3806L839.975 89.134C842.964 91.3284 846.537 92.4881 850.308 92.4881C859.682 92.4881 867.308 85.185 867.308 76.2083C867.308 73.3741 866.535 70.5821 865.072 68.134Z" fill="url(#paint1_linear_4100_17820)"/>
<path d="M888.932 80.5092C889.22 80.2936 889.571 80.2855 889.825 80.49L891.002 81.5991C891.121 81.6991 891.195 81.8533 891.201 82.0254C891.208 82.2238 891.124 82.4261 890.979 82.5667C889.279 84.1567 887.098 84.9962 884.669 84.9962C879.507 84.9962 875.308 80.9716 875.308 76.0245C875.308 71.0507 879.507 67.0039 884.669 67.0039C887.087 67.0039 889.022 67.72 890.942 69.3257C891.099 69.4601 891.188 69.6362 891.194 69.8225C891.199 70.0085 891.123 70.1873 890.979 70.3263L889.876 71.4134C889.722 71.5975 889.554 71.6446 889.44 71.6514C889.314 71.6595 889.119 71.6254 888.91 71.4235C887.745 70.4447 886.165 69.8544 884.695 69.8544C881.319 69.8544 878.572 72.6002 878.572 75.9758C878.572 79.3377 881.33 82.0725 884.72 82.0725C886.572 82.0725 887.839 81.3212 888.932 80.5092Z" fill="black"/>
<path d="M896.18 67.2478H897.85C898.227 67.2478 898.559 67.5663 898.559 67.9292V84.0708C898.559 84.4337 898.227 84.7525 897.85 84.7525H896.18C895.803 84.7525 895.472 84.4337 895.472 84.0708V67.9292C895.472 67.5663 895.803 67.2478 896.18 67.2478Z" fill="black"/>
<path fill-rule="evenodd" clip-rule="evenodd" d="M917.61 72.6838C917.61 69.6865 915.033 67.2478 911.866 67.2478H904.984C904.594 67.2478 904.276 67.5536 904.276 67.9292V84.0708C904.276 84.4467 904.594 84.7525 904.984 84.7525H906.629C907.007 84.7525 907.338 84.4337 907.338 84.0708V78.0714H910.789L914.091 84.4123C914.177 84.576 914.404 84.7525 914.7 84.7525H916.673C916.944 84.7525 917.172 84.6353 917.3 84.4312C917.43 84.223 917.432 83.9521 917.304 83.7239L913.956 77.7411C916.216 76.7764 917.61 74.8583 917.61 72.6838ZM914.523 72.7327C914.523 74.2533 913.214 75.5378 911.664 75.5378H907.388V70.0495H911.664C913.214 70.0495 914.523 71.2781 914.523 72.7327Z" fill="black"/>
<path d="M934.699 80.5092C934.987 80.2936 935.338 80.2855 935.592 80.49L936.769 81.5991C936.888 81.6991 936.962 81.8533 936.968 82.0252C936.975 82.2235 936.892 82.4259 936.746 82.5666C935.046 84.1567 932.865 84.9962 930.436 84.9962C925.274 84.9962 921.075 80.9716 921.075 76.0245C921.075 71.0507 925.274 67.0039 930.436 67.0039C932.855 67.0039 934.789 67.72 936.709 69.3257C936.866 69.4601 936.955 69.636 936.961 69.8225C936.967 70.0084 936.89 70.1872 936.746 70.3263L935.643 71.4134C935.49 71.5975 935.322 71.6446 935.207 71.6514C935.08 71.6595 934.887 71.6254 934.677 71.4235C933.512 70.4447 931.932 69.8544 930.461 69.8544C927.085 69.8544 924.339 72.6002 924.339 75.9758C924.339 79.3377 927.097 82.0725 930.487 82.0725C932.339 82.0725 933.606 81.3212 934.699 80.5092Z" fill="black"/>
<path d="M950.954 82.0484H944.326V67.9292C944.326 67.5663 943.994 67.2478 943.617 67.2478H941.947C941.557 67.2478 941.239 67.5536 941.239 67.9292V84.0708C941.239 84.4467 941.557 84.7525 941.947 84.7525H950.954C951.345 84.7525 951.663 84.4467 951.663 84.0708V82.7298C951.663 82.3542 951.345 82.0484 950.954 82.0484Z" fill="black"/>
<path d="M966.666 69.2946C966.666 69.6706 966.348 69.9764 965.958 69.9764H958.19V74.5139H964.717C965.095 74.5139 965.426 74.8325 965.426 75.1955V76.5608C965.426 76.9366 965.108 77.2424 964.717 77.2424H958.19V82.0484H965.958C966.348 82.0484 966.666 82.3542 966.666 82.7298V84.0708C966.666 84.4467 966.348 84.7525 965.958 84.7525H955.837C955.447 84.7525 955.128 84.4467 955.128 84.0708V67.9292C955.128 67.5536 955.447 67.2478 955.837 67.2478H965.958C966.348 67.2478 966.666 67.5536 966.666 67.9292V69.2946Z" fill="black"/>
<path d="M1081.66 62.877H1056.58C1056.43 62.877 1056.28 62.9384 1056.17 63.0478C1056.06 63.1571 1056 63.3054 1056 63.4602V88.5387C1056 88.6934 1056.06 88.8417 1056.17 88.9511C1056.28 89.0605 1056.43 89.1219 1056.58 89.1219H1081.66C1081.82 89.1219 1081.97 89.0605 1082.08 88.9511C1082.18 88.8417 1082.25 88.6934 1082.25 88.5387V63.4602C1082.25 63.3054 1082.18 63.1571 1082.08 63.0478C1081.97 62.9384 1081.82 62.877 1081.66 62.877ZM1073.5 79.7904C1073.5 79.945 1073.44 80.0934 1073.33 80.2028C1073.22 80.3121 1073.07 80.3737 1072.91 80.3737H1065.33C1065.18 80.3737 1065.03 80.3121 1064.92 80.2028C1064.81 80.0934 1064.75 79.945 1064.75 79.7904V72.2084C1064.75 72.0538 1064.81 71.9054 1064.92 71.7961C1065.03 71.6867 1065.18 71.6253 1065.33 71.6253H1072.91C1073.07 71.6253 1073.22 71.6867 1073.33 71.7961C1073.44 71.9054 1073.5 72.0538 1073.5 72.2084V79.7904Z" fill="black"/>
<path d="M1134.89 71.3691H1126.86C1126.52 71.3691 1126.25 71.6455 1126.25 71.9866V80.0145C1126.25 80.3555 1126.52 80.6321 1126.86 80.6321H1134.89C1135.23 80.6321 1135.51 80.3555 1135.51 80.0145V71.9866C1135.51 71.6455 1135.23 71.3691 1134.89 71.3691Z" fill="black"/>
<path d="M1125.68 62.877H1118.32C1118.01 62.877 1117.76 63.1303 1117.76 63.4431V70.8019C1117.76 71.1145 1118.01 71.368 1118.32 71.368H1125.68C1125.99 71.368 1126.25 71.1145 1126.25 70.8019V63.4431C1126.25 63.1303 1125.99 62.877 1125.68 62.877Z" fill="black"/>
<path d="M1143.43 62.877H1136.07C1135.76 62.877 1135.51 63.1303 1135.51 63.4431V70.8019C1135.51 71.1145 1135.76 71.368 1136.07 71.368H1143.43C1143.75 71.368 1144 71.1145 1144 70.8019V63.4431C1144 63.1303 1143.75 62.877 1143.43 62.877Z" fill="black"/>
<path d="M1125.68 80.6309H1118.32C1118.01 80.6309 1117.76 80.8842 1117.76 81.1968V88.5558C1117.76 88.8684 1118.01 89.1219 1118.32 89.1219H1125.68C1125.99 89.1219 1126.25 88.8684 1126.25 88.5558V81.1968C1126.25 80.8842 1125.99 80.6309 1125.68 80.6309Z" fill="black"/>
<path d="M1143.43 80.6328H1136.07C1135.76 80.6328 1135.51 80.8862 1135.51 81.1988V88.5577C1135.51 88.8703 1135.76 89.1238 1136.07 89.1238H1143.43C1143.75 89.1238 1144 88.8703 1144 88.5577V81.1988C1144 80.8862 1143.75 80.6328 1143.43 80.6328Z" fill="black"/>
<path d="M1112.56 62.877H1105.2C1104.89 62.877 1104.63 63.1303 1104.63 63.4431V70.8019C1104.63 71.1145 1104.89 71.368 1105.2 71.368H1112.56C1112.87 71.368 1113.12 71.1145 1113.12 70.8019V63.4431C1113.12 63.1303 1112.87 62.877 1112.56 62.877Z" fill="black"/>
<path d="M1112.56 80.6309H1105.2C1104.89 80.6309 1104.63 80.8842 1104.63 81.1968V88.5558C1104.63 88.8684 1104.89 89.1219 1105.2 89.1219H1112.56C1112.87 89.1219 1113.12 88.8684 1113.12 88.5558V81.1968C1113.12 80.8842 1112.87 80.6309 1112.56 80.6309Z" fill="black"/>
<path d="M1103.61 72.2066C1103.61 72.0518 1103.55 71.9034 1103.44 71.794C1103.33 71.6845 1103.18 71.6231 1103.03 71.6231H1094.86V63.4605C1094.86 63.3057 1094.8 63.1572 1094.69 63.0479C1094.58 62.9384 1094.43 62.877 1094.27 62.877H1086.69C1086.53 62.877 1086.39 62.9384 1086.28 63.0479C1086.17 63.1572 1086.11 63.3057 1086.11 63.4605V88.5384C1086.11 88.6932 1086.17 88.8416 1086.28 88.951C1086.39 89.0605 1086.53 89.1219 1086.69 89.1219H1094.27C1094.43 89.1219 1094.58 89.0605 1094.69 88.951C1094.8 88.8416 1094.86 88.6932 1094.86 88.5384V80.3758H1103.03C1103.18 80.3758 1103.33 80.3143 1103.44 80.2049C1103.55 80.0954 1103.61 79.947 1103.61 79.7923V72.2066Z" fill="black"/>
<defs>
<linearGradient id="paint0_linear_4100_17820" x1="833.333" y1="72.4871" x2="861.987" y2="72.4871" gradientUnits="userSpaceOnUse">
<stop stop-color="#70D0F3"/>
<stop offset="1" stop-color="#92CFA7"/>
</linearGradient>
<linearGradient id="paint1_linear_4100_17820" x1="844.312" y1="93.5252" x2="867.208" y2="69.6158" gradientUnits="userSpaceOnUse">
<stop stop-color="#A38FC4"/>
<stop offset="1" stop-color="#6FBAE8"/>
</linearGradient>
<clipPath id="clip0_4100_17820">
<rect width="141" height="36" fill="white" transform="translate(429.5 58)"/>
</clipPath>
</defs>
</svg>
