<svg width="40" height="40" viewBox="0 0 40 40" fill="none" xmlns="http://www.w3.org/2000/svg">	<g clip-path="url(#clip0_213_1058)">		<path d="M40 20C40 8.95431 31.0457 0 20 0C8.95431 0 0 8.95431 0 20C0 31.0457 8.95431 40 20 40C31.0457 40 40 31.0457 40 20Z" fill="white"/>		<path d="M15.5907 10.2007H12.9531C12.771 10.2007 12.6084 10.3147 12.5459 10.4859L5.61291 29.5094C5.56137 29.6509 5.66605 29.8007 5.81652 29.8007H8.45416C8.63632 29.8007 8.79891 29.6867 8.86139 29.5157L15.7944 10.492C15.846 10.3504 15.7413 10.2007 15.5907 10.2007ZM18.799 18.1717C18.7297 17.9815 18.4612 17.9815 18.3917 18.1717L17.0243 21.9242C16.9893 22.0202 16.9893 22.1257 17.0243 22.2217L19.6826 29.5155C19.7449 29.6867 19.9076 29.8005 20.0897 29.8005H22.7274C22.8779 29.8005 22.9826 29.6508 22.931 29.5092L18.799 18.1717ZM25.523 21.8447C25.5923 22.0348 25.8609 22.0348 25.9302 21.8447L30.0674 10.492C30.119 10.3504 30.0143 10.2007 29.8639 10.2007H27.2263C27.044 10.2007 26.8814 10.3146 26.819 10.4859L24.1554 17.7947C24.1204 17.8907 24.1204 17.9958 24.1554 18.0918L25.523 21.8447ZM20.3223 10.4839C20.2606 10.3138 20.099 10.2007 19.9183 10.2007H17.2717C17.0897 10.2007 16.9271 10.3146 16.8646 10.4858L9.93175 29.5094C9.88019 29.6509 9.98488 29.8007 10.1354 29.8007H12.7731C12.9553 29.8007 13.1179 29.6868 13.1804 29.5157L18.4884 14.9501C18.5233 14.8545 18.6583 14.8545 18.693 14.9501L24.0012 29.5157C24.0636 29.6868 24.2263 29.8007 24.4084 29.8007H27.0463C27.1967 29.8007 27.3014 29.6509 27.2499 29.5095L20.3223 10.4839ZM34.1827 10.2007H31.5447C31.3627 10.2007 31.2 10.3146 31.1377 10.4858L26.3147 23.7198C26.2797 23.8158 26.2797 23.9211 26.3147 24.0171L27.6824 27.7699C27.7517 27.9599 28.0203 27.9599 28.0894 27.7699L32.8639 14.6695L34.3863 10.4918C34.4379 10.3504 34.3332 10.2007 34.1827 10.2007Z" fill="#EF8220"/>	</g>	<defs>		<clipPath id="clip0_213_1058">			<rect width="40" height="40" fill="white"/>		</clipPath>	</defs></svg>