<svg width="40" height="40" viewBox="0 0 40 40" fill="none" xmlns="http://www.w3.org/2000/svg">	<g clip-path="url(#clip0_296_5786)">		<path d="M20 40C31.0457 40 40 31.0457 40 20C40 8.9543 31.0457 0 20 0C8.9543 0 0 8.9543 0 20C0 31.0457 8.9543 40 20 40Z" fill="#2C374B"/>		<path fill-rule="evenodd" clip-rule="evenodd" d="M30.83 12.9259C30.6358 12.7401 22.0041 7.71476 21.0074 7.208C20.5683 6.97997 19.7574 6.92084 19.293 7.08131C18.7524 7.25869 9.61393 12.588 9.24231 12.9343C9.0565 13.1117 8.82846 13.4073 8.73556 13.5931C8.57509 13.9225 8.56664 14.1505 8.5413 20.2401L8.52441 26.5406L9.68994 27.2248C10.3318 27.5964 10.9062 27.9089 10.9484 27.9258C11.0413 27.9512 19.3351 14.7418 19.3351 14.5644C19.3351 14.4376 17.4601 14.4631 16.793 14.5982C16.1004 14.7502 15.4923 15.0542 15.146 15.4259C15.0024 15.5779 13.8453 17.3178 12.5784 19.2941C11.3116 21.2705 10.2474 22.9174 10.2051 22.9596C10.1629 23.0104 10.1291 21.1775 10.1291 18.6691V14.2941L10.3656 14.083C10.771 13.7113 19.749 8.5678 19.9856 8.5678C20.2136 8.5678 20.3403 8.63536 22.418 9.83469C23.119 10.2401 24.994 11.3212 26.5987 12.2333C28.2034 13.1539 29.597 13.9985 29.7067 14.1083L29.8926 14.3195V23.4068L25.4353 16.5629C25.2323 16.2316 25.0204 15.9029 24.9061 15.7504L24.89 15.7256L24.8881 15.7268C24.856 15.6856 24.8338 15.6624 24.825 15.6624C24.7913 15.6708 24.5631 16.0424 23.5413 17.7654C23.4146 17.9765 23.2287 18.2975 23.1358 18.4748L22.9584 18.7958L22.96 18.7985L22.9554 18.8014L23.0836 19.0124L23.178 19.1758C23.208 19.2272 23.239 19.2752 23.2693 19.3181L23.565 19.8045C23.6014 19.8846 23.6518 19.9752 23.7101 20.0626C23.8453 20.2654 24.0227 20.5525 24.1071 20.7045C24.1284 20.7429 24.1514 20.7776 24.1746 20.8075L27.8278 26.8195L27.3926 27.0728C27.1448 27.2131 27.0264 27.2756 26.9514 27.2792L22.3818 20.1752L22.2658 19.9866L21.852 20.6624L21.8208 20.7141L20.0366 23.6145L20.0317 23.6181L23.6008 29.2286C23.1471 29.5844 20.1316 31.6525 19.9366 31.6525C19.717 31.6525 15.771 28.9394 15.8217 28.8464C15.8397 28.8104 17.0568 26.7454 18.5351 24.2375L18.5374 24.2336C19.8327 22.0361 21.328 19.4992 22.3926 17.6894C23.6594 15.5441 24.1831 14.5898 24.0987 14.5644C24.0396 14.5391 23.195 14.5306 22.2321 14.5475L20.4754 14.5728L16.4213 21.2535C14.9287 23.7186 13.5799 25.9415 12.8209 27.1924L12.8191 27.1954C12.4454 27.8112 12.2149 28.1911 12.1815 28.2468L11.9957 28.5508L15.1376 30.3582C16.869 31.3548 18.516 32.2924 18.8116 32.4528C19.4281 32.7822 20.1376 32.8921 20.6358 32.7231C20.9653 32.6218 30.2473 27.2755 30.7118 26.9292C30.8554 26.8194 31.1003 26.4901 31.2438 26.1944L31.4973 25.6708L31.4804 19.8008L31.455 13.9309L31.2523 13.534C31.1426 13.3144 30.9483 13.0357 30.83 12.9259ZM29.8853 23.5232L29.8926 23.5339V23.5185L29.8853 23.5232Z" fill="white"/>		<path d="M30.0635 23.6478L24.8301 15.6211L22.8701 18.7668L27.9305 27.1181L30.1488 26.0517L30.0635 23.6478Z" fill="#24A2EE"/>		<path d="M27.5135 28.0269L22.28 20L20.0283 23.5911L24.2289 30.3159L26.9147 29.2254L27.5135 28.0269Z" fill="#24A2EE"/>		<path fill-rule="evenodd" clip-rule="evenodd" d="M10.2186 14.368L20.0009 8.73223L29.7831 14.368V25.6327L20.0009 31.2684L12.8198 27.1313L11.8631 28.6931L19.7321 33.2266C19.8984 33.3224 20.1033 33.3224 20.2697 33.2266L31.3444 26.8463C31.5113 26.7501 31.6141 26.5723 31.6141 26.3797V13.621C31.6141 13.4284 31.5113 13.2505 31.3444 13.1544L20.2697 6.77404C20.1033 6.67818 19.8984 6.67818 19.7321 6.77404L8.65738 13.1544C8.49052 13.2505 8.3877 13.4284 8.3877 13.621V26.3797C8.3877 26.5723 8.49052 26.7501 8.65738 26.8463L10.871 28.1216L11.8571 26.5766L10.2186 25.6327V14.368Z" fill="#98BCDC"/>		<path d="M24.255 14.4922L20.4763 14.546L11.8613 28.6992L14.9007 30.4589L24.255 14.4922Z" fill="white"/>		<path d="M14.8716 15.7833C15.7346 14.3718 18.2054 14.3776 19.3331 14.5571L10.8674 28.1199C10.5799 27.9543 9.86695 27.5443 9.31497 27.2279C8.58561 26.8099 8.46514 26.7988 8.3877 26.4118V25.6611C10.1895 22.9566 14.0087 17.1949 14.8716 15.7833Z" fill="white"/>	</g>	<defs>		<clipPath id="clip0_296_5786">			<rect width="40" height="40" fill="white"/>		</clipPath>	</defs></svg>