<svg width="40" height="40" viewBox="0 0 40 40" fill="none" xmlns="http://www.w3.org/2000/svg">
	<g clip-path="url(#clip0_296_5789)">
		<path d="M20 40C31.0457 40 40 31.0457 40 20C40 8.9543 31.0457 0 20 0C8.9543 0 0 8.9543 0 20C0 31.0457 8.9543 40 20 40Z" fill="#E84142"/>
		<path d="M25.6901 20.2918C26.249 19.2752 27.1509 19.2752 27.7097 20.2918L31.1899 26.7258C31.7487 27.7423 31.2916 28.5716 30.1737 28.5716H23.1626C22.0576 28.5716 21.6003 27.7423 22.1464 26.7258L25.6901 20.2918ZM18.9583 7.90551C19.5171 6.88892 20.4063 6.88892 20.9651 7.90551L21.74 9.37688L23.569 12.761C24.0136 13.7241 24.0136 14.8611 23.569 15.8242L17.4341 27.0201C16.8753 27.9296 15.948 28.5048 14.9193 28.5716H9.82593C8.7082 28.5716 8.25095 27.7556 8.8098 26.7258L18.9583 7.90551Z" fill="white"/>
	</g>
	<defs>
		<clipPath id="clip0_296_5789">
			<rect width="40" height="40" fill="white"/>
		</clipPath>
	</defs>
</svg>
