<svg width="40" height="40" viewBox="0 0 40 40" fill="none" xmlns="http://www.w3.org/2000/svg">	<g clip-path="url(#clip0_296_5811)">		<path d="M20 40C31.0457 40 40 31.0457 40 20C40 8.9543 31.0457 0 20 0C8.9543 0 0 8.9543 0 20C0 31.0457 8.9543 40 20 40Z" fill="#17181D"/>		<path d="M10.993 20.0004L11.0074 25.2888L15.501 27.9331V31.0292L8.37758 26.8513V18.4539L10.993 20.0004ZM10.993 14.7119V17.7936L8.37598 16.2455V13.1638L10.993 11.6157L13.6228 13.1638L10.993 14.7119ZM17.3776 13.1638L19.9946 11.6157L22.6244 13.1638L19.9946 14.7119L17.3776 13.1638Z" fill="#F1B90C"/>		<path d="M12.8848 24.1926V21.0965L15.5017 22.6446V25.7264L12.8848 24.1926ZM17.3783 29.0421L19.9953 30.5901L22.6252 29.0421V32.1238L19.9953 33.6718L17.3783 32.1238V29.0421ZM26.3783 13.1638L28.9953 11.6157L31.6252 13.1638V16.2455L28.9953 17.7936V14.7119L26.3783 13.1638ZM28.9953 25.2888L29.0097 20.0003L31.6267 18.4522V26.8496L24.5033 31.0276V27.9315L28.9953 25.2888Z" fill="#F1B90C"/>		<path d="M27.118 24.1928L24.501 25.7264V22.6447L27.118 21.0967V24.1928Z" fill="#F1B90C"/>		<path d="M27.1187 15.8073L27.1332 18.9034L22.6267 21.5477V26.849L20.0097 28.3826L17.3927 26.849V21.5477L12.8864 18.9034V15.8073L15.5146 14.2592L19.9937 16.9163L24.5001 14.2592L27.13 15.8073H27.1187ZM12.8848 10.5204L19.9953 6.32812L27.1187 10.5204L24.5017 12.0685L19.9953 9.41145L15.5017 12.0685L12.8848 10.5204Z" fill="#F1B90C"/>	</g>	<defs>		<clipPath id="clip0_296_5811">			<rect width="40" height="40" fill="white"/>		</clipPath>	</defs></svg>