<svg width="40" height="40" viewBox="0 0 40 40" fill="none" xmlns="http://www.w3.org/2000/svg">
	<g clip-path="url(#clip0_296_5964)">
		<path d="M40 20C40 8.95431 31.0457 0 20 0C8.95431 0 0 8.95431 0 20C0 31.0457 8.95431 40 20 40C31.0457 40 40 31.0457 40 20Z" fill="white"/>
		<path fill-rule="evenodd" clip-rule="evenodd" d="M31.1421 7.99951V31.9995H8.85645L13.035 31.9994V27.7641H8.85645V12.2348H13.035V7.99951H31.1421ZM16.517 12.235H26.9633V16.4704H16.517V12.235ZM26.9633 24.2349H16.517V16.4704L12.3384 16.4705V24.2352L16.517 24.2349V28.4704H26.9633V24.2349Z" fill="#06FC99"/>
	</g>
	<defs>
		<clipPath id="clip0_296_5964">
			<rect width="40" height="40" fill="white"/>
		</clipPath>
	</defs>
</svg>
