<svg width="40" height="40" viewBox="0 0 40 40" fill="none" xmlns="http://www.w3.org/2000/svg">
	<circle cx="20" cy="20" r="20" fill="white"/>
	<circle cx="22" cy="18" r="7" stroke="#35D07F" stroke-width="2"/>
	<circle cx="18" cy="22" r="7" stroke="#FBCC5C" stroke-width="2"/>
	<path fill-rule="evenodd" clip-rule="evenodd" d="M16.2426 16.257C16.2468 16.2432 16.251 16.2295 16.2553 16.2157C16.5116 15.3916 16.9408 14.6437 17.5004 14.0144C16.5044 14.074 15.5575 14.3158 14.6925 14.7069C14.3185 15.534 14.081 16.4361 14.0089 17.3844C14.0056 17.4278 14.0026 17.4713 14 17.5148C14.6398 16.9459 15.4022 16.5117 16.2426 16.257ZM22.4707 25.9855C23.3984 25.93 24.2835 25.7164 25.0995 25.3713C25.1595 25.3459 25.2192 25.3197 25.2785 25.2929C25.6697 24.428 25.9115 23.4811 25.9711 22.4851C25.9156 22.5343 25.8593 22.5826 25.8021 22.6298C25.1986 23.1279 24.4961 23.5102 23.7285 23.7429C23.4737 24.5833 23.0396 25.3456 22.4707 25.9855Z" fill="#5EA33B"/>
</svg>
