<svg width="40" height="40" viewBox="0 0 40 40" fill="none" xmlns="http://www.w3.org/2000/svg">
	<g clip-path="url(#clip0_296_5887)">
		<path d="M40 20C40 8.9543 31.0457 0 20 0C8.9543 0 0 8.9543 0 20C0 31.0457 8.9543 40 20 40C31.0457 40 40 31.0457 40 20Z" fill="black"/>
		<path d="M20.2969 9.77084C20.5469 9.77084 20.7969 9.83334 21.026 9.95834L28.6302 14.3541C29.0677 14.6041 29.3594 15.0834 29.3594 15.6041V24.3959C29.3594 24.9166 29.0885 25.3959 28.6302 25.6459L21.0052 30.0416C20.7969 30.1666 20.5469 30.2291 20.276 30.2291C20.026 30.2291 19.776 30.1666 19.5469 30.0416L11.9635 25.6459C11.526 25.3959 11.2344 24.9166 11.2344 24.3959V15.6041C11.2344 15.0834 11.5052 14.6041 11.9635 14.3541L19.5885 9.95834C19.7969 9.83334 20.0469 9.77084 20.2969 9.77084ZM20.2969 7.5C19.651 7.5 19.026 7.66666 18.4427 8L10.8385 12.3958C9.69271 13.0625 8.98438 14.2709 8.98438 15.6041V24.3959C8.98438 25.7291 9.69271 26.9375 10.8385 27.6041L18.4635 32C19.0469 32.3334 19.6719 32.5 20.3177 32.5C20.9635 32.5 21.5885 32.3334 22.1719 32L29.7969 27.6041C30.9427 26.9375 31.651 25.7291 31.651 24.3959V15.6041C31.651 14.2709 30.9427 13.0625 29.7969 12.3958L22.151 8C21.5885 7.66666 20.9427 7.5 20.2969 7.5Z" fill="#FB8206"/>
	</g>
	<defs>
		<clipPath id="clip0_296_5887">
			<rect width="40" height="40" fill="white"/>
		</clipPath>
	</defs>
</svg>
