<svg width="40" height="40" viewBox="0 0 40 40" fill="none" xmlns="http://www.w3.org/2000/svg">	<g clip-path="url(#clip0_296_5841)">		<path d="M20 40C31.0457 40 40 31.0457 40 20C40 8.9543 31.0457 0 20 0C8.9543 0 0 8.9543 0 20C0 31.0457 8.9543 40 20 40Z" fill="#0062F9"/>		<path d="M18.868 8.80346C19.4828 8.49455 20.4183 8.49455 21.033 8.80346L27.3061 11.9556C27.6811 12.144 27.8849 12.426 27.9175 12.7161H27.9221V28.6302C27.9066 28.9389 27.7005 29.2432 27.3061 29.4432L21.033 32.6238C20.4183 32.9354 19.4828 32.9354 18.868 32.6238L12.595 29.4432C12.194 29.24 12.0016 28.9249 11.9921 28.6112L11.993 28.6302H11.9913V12.7161H11.9939C12.0178 12.4226 12.212 12.148 12.5949 11.9556L18.868 8.80346ZM12.9437 21.5832V28.5617L18.868 31.5495C19.21 31.7249 19.5654 31.8959 19.912 31.9089L19.9505 31.9096C20.2645 31.9106 20.5702 31.7741 20.8786 31.6294L20.9897 31.5771L26.9697 28.5364V21.645L21.1033 24.5859C20.4985 24.889 19.584 24.8946 18.9678 24.6026L18.9332 24.5859L12.9437 21.5832ZM10.9893 28.2987C10.9893 28.9044 11.0636 29.3024 11.2111 29.5828C11.3334 29.8151 11.5169 29.9928 11.8519 30.2089L11.871 30.2211C11.9446 30.2681 12.0256 30.3173 12.1241 30.3751L12.2404 30.4425L12.5974 30.6466L12.0854 31.4484L11.6858 31.2199L11.6186 31.1807C11.5031 31.1132 11.4073 31.0553 11.318 30.9981C10.3632 30.3885 10.0071 29.7237 10.0001 28.3409L10 28.2987H10.9893ZM20.4764 17.3622V23.8184C20.5361 23.801 20.5916 23.78 20.641 23.7552L26.929 20.603C26.9356 20.5997 26.9419 20.5965 26.9479 20.5932L26.9531 20.5902L26.9432 20.585L26.929 20.5775L20.641 17.4254C20.5916 17.4006 20.5361 17.3796 20.4764 17.3622ZM19.5238 17.3735C19.4778 17.3884 19.4348 17.4057 19.3954 17.4254L13.1075 20.5775C13.1009 20.5809 13.0946 20.5841 13.0886 20.5874L13.0833 20.5902L13.0931 20.5956L13.1075 20.603L19.3954 23.7552C19.4348 23.7749 19.4778 23.7922 19.5238 23.8071V17.3735ZM12.9437 13.8176V19.5971L18.7015 16.7107L12.9437 13.8176ZM26.9697 13.8114L21.2669 16.6769L26.9697 19.5356V13.8114ZM20.5719 9.6341C20.2456 9.47017 19.6554 9.47017 19.3291 9.6341L13.056 12.7862C13.0495 12.7895 13.0431 12.7929 13.0373 12.796L13.0319 12.799L13.0418 12.8044L13.056 12.8117L19.3291 15.9639C19.6554 16.1277 20.2456 16.1277 20.5719 15.9639L26.8449 12.8117C26.8515 12.8084 26.8577 12.8051 26.8637 12.8019L26.8691 12.799L26.8592 12.7936L26.8449 12.7862L20.5719 9.6341ZM27.9146 9.98085L28.3142 10.2094L28.3814 10.2485C28.4969 10.316 28.5926 10.3741 28.682 10.4311C29.6368 11.0408 29.9929 11.7056 29.9999 13.0884L30 13.1305H29.0106C29.0106 12.525 28.9364 12.1269 28.7889 11.8465C28.6666 11.6141 28.4831 11.4365 28.1481 11.2204L28.129 11.2081C28.0554 11.1611 27.9745 11.112 27.8759 11.0542L27.7596 10.9867L27.4026 10.7826L27.9146 9.98085Z" fill="white"/>	</g>	<defs>		<clipPath id="clip0_296_5841">			<rect width="40" height="40" fill="white"/>		</clipPath>	</defs></svg>