<svg width="40" height="40" viewBox="0 0 40 40" fill="none" xmlns="http://www.w3.org/2000/svg">
	<path d="M40 20C40 8.9543 31.0457 0 20 0C8.95431 0 0 8.9543 0 20C0 31.0457 8.95431 40 20 40C31.0457 40 40 31.0457 40 20Z" fill="#010101"/>
	<path d="M15.9678 10.0774L19.8337 7.84473C19.9437 7.78125 20.0806 7.78125 20.1905 7.84473L30.3799 13.7276C30.4899 13.7911 30.5579 13.9087 30.5588 14.0357L30.5725 18.0818C30.5725 18.2099 30.505 18.3285 30.3936 18.392L26.5329 20.6215C26.296 20.7591 25.9981 20.5877 25.9972 20.3134L25.9845 16.6823C25.9845 16.5553 25.9155 16.4378 25.8056 16.3742L15.9678 10.6957C15.7295 10.558 15.7295 10.2151 15.9678 10.0774Z" fill="#B4F9BA"/>
	<path d="M13.4706 28.4047L9.60563 26.1731C9.49425 26.1095 9.42676 25.992 9.42676 25.8639V14.0982C9.42676 13.9711 9.49425 13.8536 9.60469 13.7891L13.1025 11.7533C13.2134 11.6887 13.3498 11.6887 13.4602 11.7533L17.3209 13.9828C17.5579 14.1204 17.5593 14.4623 17.3219 14.601L14.1842 16.4272C14.0743 16.4907 14.0063 16.6082 14.0063 16.7363V28.0966C14.0063 28.3719 13.709 28.5433 13.4706 28.4057V28.4047Z" fill="#B4F9BA"/>
	<path d="M30.5726 21.3998V25.863C30.5726 25.9911 30.5047 26.1086 30.3938 26.1721L20.2044 32.0552C20.0944 32.1185 19.9585 32.1185 19.8485 32.0552L16.3371 30.0436C16.2257 29.98 16.1572 29.8615 16.1572 29.7334V25.2754C16.1572 25.0012 16.4536 24.8298 16.6915 24.9653L19.8424 26.7702C19.9524 26.8337 20.0878 26.8327 20.1978 26.7702L30.036 21.0895C30.2739 20.9519 30.5717 21.1234 30.5717 21.3987L30.5726 21.3998Z" fill="#B4F9BA"/>
</svg>
