<svg width="40" height="40" viewBox="0 0 40 40" fill="none" xmlns="http://www.w3.org/2000/svg">
	<g clip-path="url(#clip0_218_275)">
		<path d="M40 20C40 8.9543 31.0457 0 20 0C8.9543 0 0 8.9543 0 20C0 31.0457 8.9543 40 20 40C31.0457 40 40 31.0457 40 20Z" fill="#04795B"/>
		<path d="M14.5661 21.8115C15.3539 21.8115 16.081 21.5491 16.6667 21.0948L11.8596 16.2896C11.4052 16.865 11.1426 17.5918 11.1426 18.3893C11.1325 20.2771 12.6676 21.8115 14.5661 21.8115Z" fill="#EFEFEF"/>
		<path d="M28.8648 18.3792C28.8648 17.5917 28.6022 16.8649 28.1478 16.2793L23.3408 21.0846C23.9164 21.5389 24.6435 21.8013 25.4412 21.8013C27.3298 21.8114 28.8648 20.277 28.8648 18.3792Z" fill="#EFEFEF"/>
		<path d="M31.2896 13.1599L29.1587 15.29C29.8656 16.138 30.2897 17.2082 30.2897 18.3993C30.2897 21.0745 28.1184 23.245 25.4423 23.245C24.2607 23.245 23.1801 22.821 22.3318 22.1143L19.999 24.4463L17.6661 22.1143C16.8178 22.821 15.7473 23.245 14.5557 23.245C11.8795 23.245 9.70826 21.0745 9.70826 18.3993C9.70826 17.2182 10.1324 16.138 10.8393 15.29L9.7486 14.1997L8.70846 13.1599C7.4966 15.1588 6.7998 17.4908 6.7998 19.9943C6.7998 27.283 12.7076 33.1786 19.9888 33.1786C27.2701 33.1786 33.178 27.273 33.178 19.9943C33.1981 17.4806 32.5014 15.1486 31.2896 13.1599Z" fill="#EFEFEF"/>
		<path d="M29.5433 10.8883C27.1498 8.37468 23.7566 6.7998 19.9998 6.7998C16.2431 6.7998 12.8599 8.37468 10.4564 10.8883C10.1333 11.2316 9.8202 11.595 9.52734 11.9685L19.9897 22.4272L30.4523 11.9585C30.1896 11.595 29.8766 11.2215 29.5433 10.8883ZM19.9998 8.516C23.0901 8.516 25.9583 9.7072 28.1093 11.8777L19.9998 19.9841L11.8905 11.8777C14.0516 9.7072 16.9096 8.516 19.9998 8.516Z" fill="#EFEFEF"/>
	</g>
	<defs>
		<clipPath id="clip0_218_275">
			<rect width="40" height="40" fill="white"/>
		</clipPath>
	</defs>
</svg>
