<svg width="40" height="40" viewBox="0 0 40 40" fill="none" xmlns="http://www.w3.org/2000/svg">
 <circle cx="20" cy="20" r="20" fill="#1B295E"/>
 <path fill-rule="evenodd" clip-rule="evenodd" d="M17 19.0335V15C17 13.8954 16.1046 13 15 13C13.8954 13 13 13.8954 13 15V20.0336C13.9804 19.549 15.3113 19.1488 17 19.0335ZM17 21.0385C14.7463 21.2169 13.4876 21.9727 13 22.3958V25C13 26.1046 13.8954 27 15 27C16.1046 27 17 26.1046 17 25V21.0385ZM15 11C12.7909 11 11 12.7909 11 15V25C11 27.2091 12.7909 29 15 29C17.2091 29 19 27.2091 19 25V21H21V25C21 27.2091 22.7909 29 25 29C27.2091 29 29 27.2091 29 25V15C29 12.7909 27.2091 11 25 11C22.7909 11 21 12.7909 21 15V19H19V15C19 12.7909 17.2091 11 15 11ZM27 25V19.9664C26.0196 20.451 24.6887 20.8512 23 20.9665V25C23 26.1046 23.8954 27 25 27C26.1046 27 27 26.1046 27 25ZM27 15V17.6042C26.5124 18.0273 25.2537 18.7831 23 18.9615V15C23 13.8954 23.8954 13 25 13C26.1046 13 27 13.8954 27 15Z" fill="url(#paint0_linear_516_11242)"/>
 <defs>
  <linearGradient id="paint0_linear_516_11242" x1="10.5" y1="29" x2="29" y2="11" gradientUnits="userSpaceOnUse">
   <stop stop-color="#01AFE9"/>
   <stop offset="1" stop-color="#67F9BE"/>
  </linearGradient>
 </defs>
</svg>
