<svg width="40" height="40" viewBox="0 0 40 40" fill="none" xmlns="http://www.w3.org/2000/svg">
 <g clip-path="url(#clip0_213_1006)">
  <path d="M40 20C40 8.95431 31.0457 0 20 0C8.95431 0 0 8.95431 0 20C0 31.0457 8.95431 40 20 40C31.0457 40 40 31.0457 40 20Z" fill="#FF443F"/>
  <path d="M31.4004 31.3209C31.091 31.3555 30.9038 31.3935 30.7168 31.3935C29.3638 31.3935 28.0106 31.4143 26.66 31.3809C26.3782 31.3651 26.1142 31.2405 25.9258 31.0345C23.149 27.5033 20.3958 23.9513 17.6285 20.4143C17.3203 20.0229 17.325 19.7748 17.6391 19.3754C20.3924 15.8765 23.1126 12.351 25.8658 8.85214C26.0692 8.61152 26.3606 8.45896 26.6776 8.42732C28.0672 8.38346 29.4602 8.40424 30.851 8.40886C31.0326 8.42702 31.2124 8.45944 31.3886 8.50582C31.2498 8.72516 31.164 8.88676 31.0534 9.0299C28.3864 12.4992 25.7176 15.9654 23.0466 19.4285C22.7714 19.784 22.775 20.0173 23.0466 20.3739C25.7278 23.8301 28.3978 27.2933 31.0568 30.7633C31.164 30.9111 31.2416 31.0633 31.4004 31.3209Z" fill="white"/>
  <path d="M15.3838 19.9271C15.3838 23.5033 15.3698 27.0725 15.3966 30.6451C15.3966 31.2381 15.2044 31.4181 14.6336 31.3985C13.6853 31.3639 12.7335 31.3743 11.7829 31.3869C11.3774 31.3869 11.1934 31.2809 11.2004 30.8321C11.2105 23.5529 11.2105 16.2728 11.2004 8.99207C11.2004 8.56179 11.3693 8.41527 11.7829 8.41527C12.7521 8.42565 13.7237 8.44065 14.6953 8.40143C15.2778 8.37835 15.4036 8.61715 15.4001 9.14781C15.3815 12.7401 15.3908 16.3324 15.3908 19.9248L15.3838 19.9271Z" fill="white"/>
 </g>
 <defs>
  <clipPath id="clip0_213_1006">
   <rect width="40" height="40" fill="white"/>
  </clipPath>
 </defs>
</svg>
