<svg width="40" height="40" viewBox="0 0 40 40" fill="none" xmlns="http://www.w3.org/2000/svg">	<g clip-path="url(#clip0_296_5820)">		<path d="M20 40C31.0457 40 40 31.0457 40 20C40 8.95431 31.0457 0 20 0C8.95431 0 0 8.95431 0 20C0 31.0457 8.95431 40 20 40Z" fill="white"/>		<path d="M11.9854 25.7329L20.6706 2.87494C22.3594 2.73704 26.7503 3.33004 30.8033 6.80528C26.0886 11.5217 16.2936 21.3889 11.9854 25.7329Z" fill="url(#paint0_linear_296_5820)"/>		<path d="M16.1214 5.771L2.88683 19.0101C2.7145 21.4924 3.21769 27.3051 6.60906 30.6977C8.67697 24.9882 13.8123 11.701 16.1214 5.771Z" fill="url(#paint1_linear_296_5820)"/>		<path d="M31.0106 33.0769C22.0771 40.4411 12.6061 36.1454 8.9873 33.0769L19.9473 22.2168C22.4287 24.6991 28.1154 30.3464 31.0106 33.0769Z" fill="url(#paint2_linear_296_5820)"/>		<path d="M33.0781 30.8011C36.1455 27.181 40.44 17.7069 33.0781 8.77051C30.3485 11.6666 24.7031 17.3551 22.2217 19.8376L33.0781 30.8011Z" fill="url(#paint3_linear_296_5820)"/>		<mask id="mask0_296_5820" style="mask-type:alpha" maskUnits="userSpaceOnUse" x="2" y="2" width="36" height="36">			<path d="M11.9854 25.7329L20.6706 2.87494C22.3594 2.73704 26.7503 3.33004 30.8033 6.80528C26.0886 11.5217 16.2936 21.3889 11.9854 25.7329Z" fill="url(#paint4_linear_296_5820)"/>			<path d="M16.1214 5.771L2.88683 19.0101C2.7145 21.4924 3.21769 27.3051 6.60906 30.6977C8.67697 24.9882 13.8123 11.701 16.1214 5.771Z" fill="url(#paint5_linear_296_5820)"/>			<path d="M31.0106 33.0765C22.0771 40.4406 12.6061 36.1449 8.9873 33.0765L19.9473 22.2163C22.4287 24.6986 28.1154 30.3459 31.0106 33.0765Z" fill="url(#paint6_linear_296_5820)"/>			<path d="M33.0781 30.8011C36.1455 27.181 40.44 17.7069 33.0781 8.77051C30.3485 11.6666 24.7031 17.3551 22.2217 19.8376L33.0781 30.8011Z" fill="url(#paint7_linear_296_5820)"/>		</mask>		<g mask="url(#mask0_296_5820)">			<g filter="url(#filter0_f_296_5820)">				<path d="M22.0734 24.9695C18.812 28.3231 18.8858 33.6865 22.2383 36.949C25.5908 40.2116 30.9524 40.1377 34.2138 36.7841C37.4752 33.4305 37.4014 28.0671 34.049 24.8046C30.6965 21.5421 25.3349 21.6159 22.0734 24.9695Z" fill="url(#paint8_linear_296_5820)"/>			</g>		</g>	</g>	<defs>		<filter id="filter0_f_296_5820" x="18.124" y="20.8545" width="20.039" height="20.0449" filterUnits="userSpaceOnUse" color-interpolation-filters="sRGB">			<feFlood flood-opacity="0" result="BackgroundImageFix"/>			<feBlend mode="normal" in="SourceGraphic" in2="BackgroundImageFix" result="shape"/>			<feGaussianBlur stdDeviation="0.775385" result="effect1_foregroundBlur_296_5820"/>		</filter>		<linearGradient id="paint0_linear_296_5820" x1="30.8" y1="6.28551" x2="14.2601" y2="32.4379" gradientUnits="userSpaceOnUse">			<stop stop-color="#FB8C05"/>			<stop offset="0.479167" stop-color="#FE3400"/>			<stop offset="1" stop-color="#B6022F"/>		</linearGradient>		<linearGradient id="paint1_linear_296_5820" x1="30.8003" y1="6.28552" x2="14.2604" y2="32.438" gradientUnits="userSpaceOnUse">			<stop stop-color="#FB8C05"/>			<stop offset="0.479167" stop-color="#FE3400"/>			<stop offset="1" stop-color="#B6022F"/>		</linearGradient>		<linearGradient id="paint2_linear_296_5820" x1="30.8004" y1="6.28594" x2="14.2606" y2="32.4384" gradientUnits="userSpaceOnUse">			<stop stop-color="#FB8C05"/>			<stop offset="0.479167" stop-color="#FE3400"/>			<stop offset="1" stop-color="#B6022F"/>		</linearGradient>		<linearGradient id="paint3_linear_296_5820" x1="30.8001" y1="6.28557" x2="14.2603" y2="32.438" gradientUnits="userSpaceOnUse">			<stop stop-color="#FB8C05"/>			<stop offset="0.479167" stop-color="#FE3400"/>			<stop offset="1" stop-color="#B6022F"/>		</linearGradient>		<linearGradient id="paint4_linear_296_5820" x1="30.8" y1="6.28551" x2="14.2601" y2="32.4379" gradientUnits="userSpaceOnUse">			<stop stop-color="#FB8C05"/>			<stop offset="0.479167" stop-color="#FE3400"/>			<stop offset="1" stop-color="#B6022F"/>		</linearGradient>		<linearGradient id="paint5_linear_296_5820" x1="30.8003" y1="6.28552" x2="14.2604" y2="32.438" gradientUnits="userSpaceOnUse">			<stop stop-color="#FB8C05"/>			<stop offset="0.479167" stop-color="#FE3400"/>			<stop offset="1" stop-color="#B6022F"/>		</linearGradient>		<linearGradient id="paint6_linear_296_5820" x1="30.8004" y1="6.28545" x2="14.2606" y2="32.4379" gradientUnits="userSpaceOnUse">			<stop stop-color="#FB8C05"/>			<stop offset="0.479167" stop-color="#FE3400"/>			<stop offset="1" stop-color="#B6022F"/>		</linearGradient>		<linearGradient id="paint7_linear_296_5820" x1="30.8001" y1="6.28557" x2="14.2603" y2="32.438" gradientUnits="userSpaceOnUse">			<stop stop-color="#FB8C05"/>			<stop offset="0.479167" stop-color="#FE3400"/>			<stop offset="1" stop-color="#B6022F"/>		</linearGradient>		<linearGradient id="paint8_linear_296_5820" x1="23.1771" y1="26.0436" x2="11.1324" y2="34.5565" gradientUnits="userSpaceOnUse">			<stop stop-color="#D4016A" stop-opacity="0"/>			<stop offset="1" stop-color="#D4016A"/>		</linearGradient>		<clipPath id="clip0_296_5820">			<rect width="40" height="40" fill="white"/>		</clipPath>	</defs></svg>