<svg width="40" height="40" viewBox="0 0 40 40" fill="none" xmlns="http://www.w3.org/2000/svg">
	<g clip-path="url(#clip0_296_5844)">
		<path d="M40 20C40 8.9543 31.0457 0 20 0C8.9543 0 0 8.9543 0 20C0 31.0457 8.9543 40 20 40C31.0457 40 40 31.0457 40 20Z" fill="black"/>
		<mask id="mask0_296_5844" style="mask-type:luminance" maskUnits="userSpaceOnUse" x="12" y="10" width="19" height="19">
			<path d="M30.1524 10H12V29H30.1524V10Z" fill="white"/>
		</mask>
		<g mask="url(#mask0_296_5844)">
			<path d="M27.0756 29H12V13.083H15.4493V25.9153H27.0756V28.9983V29Z" fill="white"/>
			<path d="M27.0759 16.1661C28.7752 16.1661 30.1527 14.7858 30.1527 13.0831C30.1527 11.3803 28.7752 10 27.0759 10C25.3766 10 23.999 11.3803 23.999 13.0831C23.999 14.7858 25.3766 16.1661 27.0759 16.1661Z" fill="white"/>
		</g>
	</g>
	<defs>
		<clipPath id="clip0_296_5844">
			<rect width="40" height="40" fill="white"/>
		</clipPath>
	</defs>
</svg>
