<svg width="40" height="40" viewBox="0 0 40 40" fill="none" xmlns="http://www.w3.org/2000/svg">	<circle cx="20" cy="20" r="20" fill="black"/>	<path d="M35 20C35 11.7157 28.2843 5 20 5C11.7157 5 5 11.7157 5 20C5 28.2843 11.7157 35 20 35C28.2843 35 35 28.2843 35 20Z" fill="#010101"/>	<path d="M35 20C35 11.7157 28.2843 5 20 5C11.7157 5 5 11.7157 5 20C5 28.2843 11.7157 35 20 35C28.2843 35 35 28.2843 35 20Z" fill="#010101"/>	<path d="M11.1804 15.5275L6.63242 13.2134C6.27242 13.9088 5.97242 14.6402 5.73242 15.3956L10.5924 16.9664C10.7484 16.4748 10.9524 15.9952 11.1804 15.5395V15.5275Z" fill="white"/>	<path d="M15.044 11.4389L17.564 15.7794C17.936 15.5636 18.32 15.4077 18.74 15.2878L17.432 10.4437C17.768 10.3598 18.104 10.2758 18.44 10.2279L17.636 5.19189C16.856 5.3118 16.088 5.50365 15.344 5.74345L16.904 10.5156C16.412 10.6715 15.92 10.8753 15.464 11.1152L13.172 6.64273C12.476 7.00245 11.804 7.41012 11.168 7.87775L14.18 12.0024C14.456 11.7986 14.744 11.6188 15.044 11.4389Z" fill="white"/>	<path d="M28.5559 15.036L24.2119 17.554C24.4279 17.9257 24.5839 18.3094 24.7039 18.729L29.5519 17.4221C29.6359 17.7578 29.7199 18.0935 29.7679 18.4293L34.8079 17.6259C34.6879 16.8465 34.4959 16.0792 34.2559 15.3357L29.4799 16.8945C29.3119 16.4029 29.1199 15.9233 28.8799 15.4557L33.3439 13.1655C32.9839 12.47 32.5759 11.7986 32.1079 11.1631L27.9799 14.1727C28.1839 14.4485 28.3639 14.7362 28.5439 15.036H28.5559Z" fill="white"/>	<path d="M26.7921 6.63073C26.0961 6.27101 25.3641 5.97125 24.6081 5.73145L23.0361 10.5876C23.5281 10.7434 24.0081 10.9473 24.4641 11.1751L26.7801 6.63073H26.7921Z" fill="white"/>	<path d="M24.9795 11.3549L22.4355 15.7794C22.8075 15.9952 23.1435 16.247 23.4435 16.5588L30.5955 9.3885C30.0435 8.83695 29.4435 8.32136 28.8075 7.86572L25.8555 11.9305C25.5795 11.7266 25.2795 11.5348 24.9795 11.3669V11.3549Z" fill="white"/>	<path d="M11.3484 15.0238L15.7644 17.5778C15.9804 17.2061 16.2444 16.8704 16.5444 16.5706L9.38045 9.42432C8.82845 9.97588 8.31245 10.5754 7.85645 11.2109L11.9244 14.1605C11.7204 14.4363 11.5284 14.7361 11.3604 15.0358L11.3484 15.0238Z" fill="white"/>	<path d="M21.5483 10.1439L22.3163 5.17986C21.5483 5.05995 20.7803 5 20.0003 5H19.9883V15.1199H20.0003C20.4323 15.1199 20.8523 15.1799 21.2603 15.2878L22.5683 10.3597C22.2323 10.2758 21.8963 10.2038 21.5483 10.1439Z" fill="white"/>	<path d="M15.284 18.741L10.352 17.4341C10.268 17.7698 10.196 18.1055 10.136 18.4533L5.18 17.6859C5.06 18.4533 5 19.2326 5 20.012H15.128C15.128 19.5804 15.188 19.1607 15.296 18.753L15.284 18.741Z" fill="white"/>	<path d="M28.8193 24.4725L33.3673 26.7867C33.7273 26.0912 34.0273 25.3598 34.2673 24.6044L29.4073 23.0337C29.2513 23.5253 29.0473 24.0049 28.8193 24.4606V24.4725Z" fill="white"/>	<path d="M24.9558 28.5493L22.4358 24.2087C22.0638 24.4246 21.6798 24.5804 21.2598 24.7003L22.5678 29.5445C22.2318 29.6284 21.8958 29.7123 21.5598 29.7603L22.3638 34.7963C23.1438 34.6764 23.9118 34.4845 24.6558 34.2447L23.0958 29.4725C23.5878 29.3167 24.0798 29.1128 24.5358 28.873L26.8278 33.3454C27.5238 32.9857 28.1958 32.578 28.8318 32.1104L25.8198 27.9857C25.5438 28.1896 25.2558 28.3694 24.9558 28.5493Z" fill="white"/>	<path d="M11.4434 24.964L15.7874 22.4461C15.5714 22.0744 15.4154 21.6907 15.2954 21.271L10.4474 22.578C10.3634 22.2422 10.2794 21.9065 10.2314 21.5708L5.19141 22.3741C5.31141 23.1535 5.50341 23.9209 5.74341 24.6643L10.5194 23.1055C10.6874 23.5971 10.8794 24.0887 11.1194 24.5444L6.65541 26.8345C7.01541 27.53 7.42341 28.2015 7.89141 28.8369L12.0194 25.8274C11.8154 25.5516 11.6234 25.2638 11.4554 24.964H11.4434Z" fill="white"/>	<path d="M13.208 33.3693C13.904 33.729 14.636 34.0288 15.392 34.2686L16.964 29.4125C16.472 29.2566 15.992 29.0528 15.536 28.825L13.22 33.3693H13.208Z" fill="white"/>	<path d="M15.0203 28.645L17.5643 24.2205C17.1923 24.0047 16.8563 23.7529 16.5563 23.4412L9.4043 30.6114C9.9563 31.163 10.5563 31.6786 11.1923 32.1342L14.1443 28.0695C14.4203 28.2733 14.7203 28.4651 15.0203 28.633V28.645Z" fill="white"/>	<path d="M28.6521 24.9761L24.2361 22.4221C24.0201 22.7938 23.7561 23.1296 23.4561 23.4293L30.6201 30.5756C31.1721 30.024 31.6881 29.4245 32.1441 28.789L28.0761 25.8394C28.2801 25.5636 28.4721 25.2638 28.6401 24.9641L28.6521 24.9761Z" fill="white"/>	<path d="M18.7406 24.7122L17.4326 29.6402C17.7686 29.7241 18.1046 29.7961 18.4526 29.856L17.6846 34.8201C18.4526 34.94 19.2206 34.9999 20.0006 34.9999H20.0126V24.88H20.0006C19.5686 24.88 19.1486 24.8201 18.7406 24.7122Z" fill="white"/>	<path d="M24.8721 20C24.8721 20.4317 24.8121 20.8513 24.7041 21.259L29.6361 22.5659C29.7201 22.2302 29.7921 21.8945 29.8521 21.5468L34.8201 22.3261C34.9401 21.5588 35.0001 20.7794 35.0001 20H24.8721Z" fill="white"/></svg>