<svg width="40" height="40" viewBox="0 0 40 40" fill="none" xmlns="http://www.w3.org/2000/svg">	<g clip-path="url(#clip0_296_5864)">		<path d="M20 40C31.0457 40 40 31.0457 40 20C40 8.95431 31.0457 0 20 0C8.95431 0 0 8.95431 0 20C0 31.0457 8.95431 40 20 40Z" fill="#313042"/>		<path d="M15.8749 29.4001C16.0819 28.9381 16.3109 28.4931 16.4699 28.0251C16.5169 27.8871 16.4069 27.6531 16.3019 27.5111C15.4619 26.3781 15.1539 25.1261 15.4169 23.7371C15.4393 23.6228 15.4707 23.5105 15.5109 23.4011C15.5474 23.3262 15.59 23.2544 15.6379 23.1861C16.6789 24.1921 16.9529 25.4381 17.0549 26.8011C17.3839 26.2011 17.7299 25.6011 18.0249 24.9781C18.0749 24.8731 17.9339 24.6501 17.8409 24.5081C16.9919 23.2081 16.8059 21.8371 17.3549 20.2601C18.3849 21.2931 18.6149 22.5111 18.6979 23.8511C19.0609 23.3081 19.4369 22.7731 19.7759 22.2151C19.8299 22.1261 19.7369 21.9341 19.6869 21.7981C19.2029 20.4721 19.2639 19.1841 19.9439 17.9371C20.0199 17.7971 20.1249 17.6731 20.2549 17.4851C20.9059 18.6101 20.8929 19.7331 20.6449 20.8851L20.7929 20.9541C21.0259 20.5541 21.3359 20.1881 21.4769 19.7621C21.9909 18.2011 22.9579 17.0621 24.4479 16.3741C24.6769 16.2865 24.9106 16.2118 25.1479 16.1501C25.12 16.3822 25.0776 16.6124 25.0209 16.8391C24.5359 18.3291 23.5939 19.4451 22.1599 20.0651C21.5399 20.3341 21.2069 20.7981 20.8599 21.3341C22.0099 20.8341 23.1689 20.5151 24.5149 20.9711C24.2609 21.2061 24.0789 21.4161 23.8589 21.5711C22.8599 22.3001 21.7369 22.6001 20.5109 22.3901C20.1499 22.3281 19.9589 22.4281 19.7809 22.7191C19.4809 23.2141 19.1509 23.6921 18.8609 24.2431C20.1489 23.7091 21.4299 23.4431 22.9029 24.0611C22.4979 24.3391 22.2029 24.5951 21.8649 24.7611C20.9053 25.2541 19.7977 25.3762 18.7539 25.1041C18.4629 25.0301 18.2959 25.0581 18.1539 25.3401C17.8539 25.9481 17.5179 26.5401 17.2249 27.2071C18.5029 26.5841 19.7899 26.2291 21.1609 26.7261L21.3279 26.9401C21.1529 27.0258 20.983 27.1212 20.8189 27.2261C19.7449 27.9851 18.5649 28.2891 17.2689 28.0261C16.9159 27.9531 16.7509 28.0511 16.6269 28.3691C16.1919 29.4871 15.7519 30.6031 15.2879 31.7091C15.0959 32.1681 14.8359 32.5981 14.6149 33.0461C14.4509 33.3771 14.2528 33.4461 13.9008 33.2671C10.0268 31.3201 7.39283 28.3081 6.26583 24.1121C4.25183 16.6121 8.43783 9.01212 15.8719 6.77012C24.5109 4.16212 32.8519 9.92412 34.0999 18.2541C35.0999 24.9471 31.2999 31.3901 25.0239 33.7171C24.6659 33.8491 24.3239 34.0241 23.9749 33.6461C23.6259 33.2681 23.7259 32.9101 23.8749 32.4931C24.3749 31.0671 24.8749 29.6371 25.3289 28.1931C25.6069 27.3131 25.8589 27.0761 26.7979 26.9931C27.6449 26.9201 28.4919 26.8451 29.3319 26.7251C30.0959 26.6161 30.3259 26.3191 30.3319 25.5511C30.3477 25.3501 30.3324 25.1476 30.2869 24.9511C30.1789 24.6031 30.2789 24.3331 30.5129 24.0871C30.7469 23.8411 30.7949 23.6321 30.5269 23.3561C30.4409 23.2671 30.4419 22.9451 30.5269 22.8631C30.8439 22.5631 30.8009 22.2731 30.5879 21.9731C30.3619 21.6551 30.4289 21.4371 30.7439 21.2351C30.9661 21.0864 31.1756 20.9191 31.3699 20.7351C31.7449 20.3891 31.7119 20.1671 31.3109 19.8571C30.6689 19.3571 30.0329 18.8571 29.4169 18.3251C29.0169 17.9841 28.8959 17.5251 29.0269 17.0091C29.2399 16.1731 28.9919 15.4491 28.5559 14.7321C28.1903 14.1218 27.8707 13.485 27.5999 12.8271C27.1749 11.8071 26.4999 11.0651 25.4139 10.8061C24.3959 10.5641 23.3599 10.3951 22.3279 10.2191C21.6279 10.0981 20.9099 10.0361 20.2049 9.91912C18.2909 9.60812 16.6269 10.1321 15.1379 11.3481C14.6963 11.6999 14.219 12.0042 13.7138 12.2561C13.307 12.4445 12.9785 12.7688 12.7848 13.1731C12.5993 13.5378 12.324 13.8492 11.9848 14.0781C11.2298 14.5781 10.4848 15.0491 9.97483 15.8401C9.80783 16.1011 9.46883 16.2601 9.19283 16.4401C8.39983 16.9621 8.12683 17.5921 8.42283 18.5001C8.61566 19.0664 8.64718 19.6751 8.51383 20.2581C8.42515 20.7308 8.41332 21.2146 8.47883 21.6911C8.54883 22.3171 8.93083 22.7671 9.52083 22.9911C9.96483 23.1581 10.1848 23.4471 10.2488 23.9071C10.3368 24.5391 10.6538 25.0221 11.1208 25.4821C11.5548 25.9348 11.9031 26.4622 12.1488 27.0391C12.4568 27.7221 12.8678 28.1931 13.5938 28.4461C14.2818 28.6851 14.9309 29.0381 15.5939 29.3371C15.6857 29.3654 15.7797 29.3865 15.8749 29.4001Z" fill="#00DACC"/>	</g>	<defs>		<clipPath id="clip0_296_5864">			<rect width="40" height="40" fill="white"/>		</clipPath>	</defs></svg>