<svg width="40" height="40" viewBox="0 0 40 40" fill="none" xmlns="http://www.w3.org/2000/svg">	<circle cx="20" cy="20" r="20" fill="#1D1336"/>	<g clip-path="url(#clip0_296_5898)">		<path d="M19.7534 9.52393C17.7552 9.52393 15.8388 10.3246 14.4259 11.7497C13.0129 13.1748 12.2191 15.1077 12.2191 17.1232C12.1939 17.4957 12.1939 17.8696 12.2191 18.2422C13.4772 17.4495 14.8886 16.937 16.3588 16.739C19.505 16.739 20.9953 19.6451 23.8931 19.6451C25.0561 19.5385 26.1675 19.1109 27.1055 18.4092C27.1858 17.9854 27.2247 17.5546 27.2214 17.1232C27.2172 15.1206 26.4311 13.2002 25.0334 11.778C23.6356 10.3557 21.7387 9.54588 19.7534 9.52393V9.52393Z" fill="#F2B705"/>		<path d="M23.9923 21.6159C22.6026 21.5222 21.2741 21.0037 20.1838 20.1295C19.1157 19.2819 17.815 18.7863 16.4581 18.7098C15.0514 18.8725 13.7019 19.3644 12.5171 20.1462C12.4702 20.1847 12.4156 20.2123 12.357 20.2272C12.2984 20.2421 12.2372 20.2439 12.1779 20.2324C12.1185 20.221 12.0624 20.1965 12.0134 20.1608C11.9644 20.1251 11.9237 20.0791 11.8943 20.0258C11.8648 19.9726 11.8473 19.9135 11.8429 19.8527C11.8385 19.7919 11.8473 19.7309 11.8688 19.6739C11.8903 19.617 11.9239 19.5654 11.9672 19.5229C12.0106 19.4804 12.0626 19.448 12.1197 19.428C13.4267 18.5776 14.912 18.0458 16.4581 17.8748C17.9676 17.9553 19.4172 18.497 20.6143 19.428C21.5599 20.2017 22.7132 20.6728 23.9261 20.7808C25.0366 20.6656 26.0925 20.2373 26.9729 19.5449C27.0184 19.5137 27.0696 19.4919 27.1235 19.4809C27.1775 19.4699 27.233 19.4698 27.287 19.4807C27.341 19.4915 27.3922 19.5132 27.4378 19.5443C27.4834 19.5754 27.5224 19.6154 27.5525 19.6618C27.6098 19.7532 27.6298 19.8634 27.6081 19.9694C27.5865 20.0753 27.525 20.1686 27.4365 20.2297C26.4387 21.006 25.2459 21.486 23.9923 21.6159Z" fill="#53CBC8"/>		<path d="M13.163 25.2736C13.0532 25.2736 12.9479 25.2296 12.8703 25.1513C12.7926 25.073 12.749 24.9668 12.749 24.856V21.2151C12.768 21.1207 12.8188 21.0358 12.8927 20.9749C12.9667 20.9139 13.0592 20.8806 13.1547 20.8806C13.2502 20.8806 13.3428 20.9139 13.4167 20.9749C13.4906 21.0358 13.5414 21.1207 13.5604 21.2151V24.856C13.5605 24.9639 13.5192 25.0677 13.4451 25.1455C13.371 25.2234 13.2699 25.2692 13.163 25.2736Z" fill="#53CBC8"/>		<path d="M15.0175 25.4239C14.9077 25.4239 14.8024 25.3799 14.7248 25.3016C14.6471 25.2233 14.6035 25.1171 14.6035 25.0064V19.9959C14.6035 19.8852 14.6471 19.779 14.7248 19.7007C14.8024 19.6224 14.9077 19.5784 15.0175 19.5784C15.1273 19.5784 15.2326 19.6224 15.3102 19.7007C15.3878 19.779 15.4315 19.8852 15.4315 19.9959V25.0064C15.4315 25.1171 15.3878 25.2233 15.3102 25.3016C15.2326 25.3799 15.1273 25.4239 15.0175 25.4239Z" fill="#53CBC8"/>		<path d="M16.8724 30C16.818 29.9979 16.7646 29.9849 16.7152 29.9619C16.6657 29.9389 16.6213 29.9063 16.5844 29.866C16.5475 29.8257 16.5188 29.7784 16.5 29.7269C16.4813 29.6754 16.4727 29.6206 16.475 29.5658V20.0626C16.4749 19.9547 16.5162 19.8509 16.5903 19.7731C16.6644 19.6952 16.7655 19.6493 16.8724 19.645C16.9822 19.645 17.0875 19.689 17.1651 19.7673C17.2427 19.8456 17.2863 19.9518 17.2863 20.0626V29.5658C17.2886 29.622 17.2795 29.6781 17.2597 29.7307C17.2399 29.7833 17.2098 29.8313 17.1711 29.8719C17.1324 29.9124 17.086 29.9447 17.0347 29.9667C16.9834 29.9887 16.9281 30.0001 16.8724 30Z" fill="#53CBC8"/>		<path d="M18.7435 25.0397C18.6831 25.0405 18.6233 25.0279 18.5682 25.0029C18.5131 24.9779 18.4641 24.941 18.4246 24.8948C18.3852 24.8487 18.3562 24.7944 18.3398 24.7357C18.3234 24.6771 18.3199 24.6155 18.3296 24.5554V20.8643C18.3296 20.7536 18.3732 20.6474 18.4508 20.5691C18.5284 20.4908 18.6337 20.4468 18.7435 20.4468C18.8533 20.4468 18.9586 20.4908 19.0362 20.5691C19.1139 20.6474 19.1575 20.7536 19.1575 20.8643V24.5554C19.1672 24.6155 19.1637 24.6771 19.1472 24.7357C19.1308 24.7944 19.1019 24.8487 19.0624 24.8948C19.023 24.941 18.974 24.9779 18.9189 25.0029C18.8638 25.0279 18.8039 25.0405 18.7435 25.0397Z" fill="#53CBC8"/>		<path d="M20.5976 23.8039C20.4878 23.8039 20.3825 23.7599 20.3048 23.6816C20.2272 23.6033 20.1836 23.4971 20.1836 23.3864V21.8665C20.1836 21.7558 20.2272 21.6496 20.3048 21.5713C20.3825 21.493 20.4878 21.449 20.5976 21.449C20.7074 21.449 20.8126 21.493 20.8903 21.5713C20.9679 21.6496 21.0115 21.7558 21.0115 21.8665V23.3864C21.0115 23.4971 20.9679 23.6033 20.8903 23.6816C20.8126 23.7599 20.7074 23.8039 20.5976 23.8039Z" fill="#53CBC8"/>		<path d="M22.4521 28.0626C22.3423 28.0626 22.237 28.0186 22.1593 27.9403C22.0817 27.862 22.0381 27.7558 22.0381 27.6451V22.6346C22.0381 22.5238 22.0817 22.4176 22.1593 22.3393C22.237 22.261 22.3423 22.217 22.4521 22.217C22.5618 22.217 22.6671 22.261 22.7448 22.3393C22.8224 22.4176 22.866 22.5238 22.866 22.6346V27.6451C22.866 27.7558 22.8224 27.862 22.7448 27.9403C22.6671 28.0186 22.5618 28.0626 22.4521 28.0626Z" fill="#53CBC8"/>		<path d="M24.3065 27.7288C24.1968 27.7288 24.0915 27.6848 24.0138 27.6065C23.9362 27.5282 23.8926 27.422 23.8926 27.3112V22.8853C23.8926 22.7746 23.9362 22.6684 24.0138 22.5901C24.0915 22.5118 24.1968 22.4678 24.3065 22.4678C24.4163 22.4678 24.5216 22.5118 24.5993 22.5901C24.6769 22.6684 24.7205 22.7746 24.7205 22.8853V27.3446C24.7122 27.4495 24.6649 27.5473 24.5882 27.6185C24.5114 27.6897 24.4108 27.7291 24.3065 27.7288Z" fill="#53CBC8"/>		<path d="M26.1776 24.8726C26.0679 24.8726 25.9626 24.8286 25.8849 24.7503C25.8073 24.672 25.7637 24.5658 25.7637 24.4551V22.2671C25.7637 22.1564 25.8073 22.0502 25.8849 21.9719C25.9626 21.8936 26.0679 21.8496 26.1776 21.8496C26.2874 21.8496 26.3927 21.8936 26.4704 21.9719C26.548 22.0502 26.5916 22.1564 26.5916 22.2671V24.4551C26.5916 24.5658 26.548 24.672 26.4704 24.7503C26.3927 24.8286 26.2874 24.8726 26.1776 24.8726Z" fill="#53CBC8"/>	</g>	<defs>		<clipPath id="clip0_296_5898">			<rect width="15.7143" height="20.4762" fill="white" transform="translate(11.9043 9.52393)"/>		</clipPath>	</defs></svg>