<svg xmlns="http://www.w3.org/2000/svg" width="32" height="32" viewBox="0 0 32 32" fill="none">
  <g clip-path="url(#clip0_1522_12147)">
    <path d="M16 32C24.8366 32 32 24.8366 32 16C32 7.16344 24.8366 0 16 0C7.16344 0 0 7.16344 0 16C0 24.8366 7.16344 32 16 32Z" fill="#17181D"/>
    <path d="M8.79476 16.0002L8.8063 20.2309L12.4012 22.3464V24.8233L6.70245 21.481V14.763L8.79476 16.0002ZM8.79476 11.7694V14.2348L6.70117 12.9963V10.5309L8.79476 9.29248L10.8986 10.5309L8.79476 11.7694ZM13.9025 10.5309L15.9961 9.29248L18.0999 10.5309L15.9961 11.7694L13.9025 10.5309Z" fill="#FE0420"/>
    <path d="M10.3086 19.354V16.8771L12.4022 18.1156V20.581L10.3086 19.354ZM13.9034 23.2336L15.997 24.472L18.1009 23.2336V25.6989L15.997 26.9373L13.9034 25.6989V23.2336ZM21.1034 10.5309L23.197 9.29248L25.3009 10.5309V12.9963L23.197 14.2348V11.7694L21.1034 10.5309ZM23.197 20.2309L23.2086 16.0002L25.3022 14.7617V21.4796L19.6034 24.822V22.3451L23.197 20.2309Z" fill="#FE0420"/>
    <path d="M21.6932 19.3541L19.5996 20.581V18.1156L21.6932 16.8772V19.3541Z" fill="#FE0420"/>
    <path d="M21.6958 12.6458L21.7073 15.1227L18.1022 17.2382V21.4792L16.0086 22.7061L13.915 21.4792V17.2382L10.3099 15.1227V12.6458L12.4124 11.4074L15.9958 13.533L19.6009 11.4074L21.7048 12.6458H21.6958ZM10.3086 8.41634L15.997 5.0625L21.6958 8.41634L19.6022 9.65481L15.997 7.52916L12.4022 9.65481L10.3086 8.41634Z" fill="#FE0420"/>
  </g>
  <defs>
    <clipPath id="clip0_1522_12147">
      <rect width="32" height="32" fill="white"/>
    </clipPath>
  </defs>
</svg>