<svg width="40" height="40" viewBox="0 0 40 40" fill="none" xmlns="http://www.w3.org/2000/svg">
  <g clip-path="url(#clip0_1409_11852)">
    <path d="M20 40C31.0457 40 40 31.0457 40 20C40 8.95431 31.0457 0 20 0C8.95431 0 0 8.95431 0 20C0 31.0457 8.95431 40 20 40Z" fill="white" />
    <path d="M14.4485 15.8493C14.1001 15.8829 13.7283 15.9867 13.4286 16.1323C12.3686 16.6499 11.615 17.9109 11.3186 19.6592C11.1847 20.453 11.1344 21.446 11.2014 21.9752C11.3371 23.0587 11.8294 23.7084 12.6734 23.9144C13.0384 24.0033 13.5709 24.0066 13.9695 23.9212C15.3242 23.6349 16.2855 22.3922 16.6756 20.4212C16.7359 20.113 16.8129 19.547 16.8547 19.0982C16.8966 18.6276 16.8933 17.9929 16.8447 17.6932C16.7593 17.1539 16.5752 16.7319 16.2922 16.4237C16.0276 16.134 15.6776 15.9499 15.2489 15.8744C15.0697 15.8426 14.6545 15.8293 14.4485 15.8493Z" fill="#FE0420" />
    <path d="M24.6235 17.4711C24.7856 16.5949 24.9125 15.9089 24.917 15.8938C24.9255 15.8669 24.999 15.8652 26.1679 15.8652C26.9717 15.8652 27.464 15.8719 27.5612 15.8837C27.9597 15.9322 28.3165 16.1014 28.5407 16.3459C28.7083 16.5285 28.8172 16.7278 28.8857 16.9789C28.9293 17.1347 28.936 17.5718 28.9009 17.8012C28.7535 18.7441 28.0769 19.4088 27.0572 19.6148C26.739 19.6785 26.548 19.6852 25.354 19.6735L24.2188 19.6618L24.2272 19.6182C24.2322 19.5948 24.3879 18.7524 24.572 17.7492L24.6235 17.4711Z" fill="#FE0420" />
    <path fill-rule="evenodd" clip-rule="evenodd" d="M19.3213 -5.71065C17.9012 -5.66208 16.6989 -5.53984 15.4194 -5.31041C10.9617 -4.5116 6.7619 -2.51875 3.31227 0.431987C2.74458 0.917639 2.46828 1.17386 1.82023 1.82195C1.02647 2.61742 0.547541 3.1466 -0.0687034 3.91695C-3.32409 7.97966 -5.26325 12.8931 -5.64505 18.051C-5.71538 19.0006 -5.73548 20.4207 -5.69193 21.2413C-5.56299 23.5858 -5.19292 25.6523 -4.52308 27.7741C-3.59035 30.7316 -2.06648 33.5901 -0.132338 36.0084C0.897528 37.2978 2.09987 38.5388 3.33738 39.5956C7.46857 43.119 12.643 45.2474 18.0486 45.6477C18.7703 45.7013 19.1504 45.7147 19.991 45.7147C20.8367 45.7147 21.2537 45.6996 21.9503 45.6477C27.113 45.2608 32.0079 43.3333 36.057 40.0946C36.834 39.4733 37.3766 38.9843 38.1787 38.1821C38.9724 37.3867 39.4513 36.8574 40.0676 36.0871C43.323 32.0244 45.2622 27.111 45.6439 21.953C45.7143 21.0034 45.7343 19.5834 45.6909 18.7628C45.5619 16.4183 45.1917 14.3517 44.522 12.2299C43.5892 9.2725 42.0653 6.41386 40.1312 3.99566C39.1013 2.70617 37.899 1.46525 36.6614 0.408541C33.7109 -2.10847 30.1742 -3.94388 26.4214 -4.9085C24.7402 -5.34055 23.1259 -5.58505 21.2804 -5.68721C20.9573 -5.70562 19.626 -5.7207 19.3213 -5.71065ZM15.5786 13.8644C16.513 13.9749 17.2799 14.2814 17.933 14.8073C18.6732 15.4017 19.2124 16.3613 19.4284 17.4616C19.6712 18.7008 19.5222 20.2733 19.0264 21.6767C18.2863 23.7683 16.7156 25.2823 14.7664 25.7796C14.2104 25.922 13.8269 25.9688 13.209 25.9688C12.7184 25.9706 12.4555 25.947 12.0552 25.87C10.235 25.515 9.01254 24.259 8.62905 22.3466C8.53862 21.8977 8.52021 21.675 8.52021 21.057C8.52188 20.4474 8.53695 20.2548 8.62905 19.704C8.81158 18.6221 9.15822 17.6491 9.64887 16.8403C10.7457 15.0317 12.4086 13.99 14.4364 13.8393C14.7062 13.8192 15.3056 13.8326 15.5786 13.8644ZM27.8449 13.8644C29.007 13.9749 29.9012 14.3618 30.5844 15.0484C31.0767 15.5424 31.3614 16.1134 31.482 16.8453C31.5222 17.0966 31.5222 17.6943 31.482 17.9924C31.3514 18.9286 30.988 19.6604 30.3416 20.2817C29.6316 20.965 28.6939 21.4137 27.5853 21.5997C27.0009 21.6984 26.9239 21.7018 25.3213 21.6984C24.4454 21.6951 23.851 21.7001 23.851 21.7101C23.851 21.7236 23.1142 25.7193 23.079 25.8918L23.0623 25.9806H20.4817L20.4917 25.9253C20.4934 25.9158 20.5486 25.615 20.6433 25.0981L20.646 25.0837C20.8397 24.0267 21.196 22.0836 21.5987 19.8848C22.2014 16.5924 22.6989 13.8795 22.7039 13.8577L22.7139 13.8175L25.1537 13.8292C27.0679 13.8376 27.6473 13.846 27.8449 13.8644Z" fill="#FE0420" />
  </g>
  <defs>
    <clipPath id="clip0_1409_11852">
      <rect width="40" height="40" rx="20" fill="white" />
    </clipPath>
  </defs>
</svg>
