<svg width="40" height="40" viewBox="0 0 40 40" fill="none" xmlns="http://www.w3.org/2000/svg">	<g clip-path="url(#clip0_296_5767)">		<path d="M20 40C31.008 40 40 30.992 40 20C40 8.992 30.992 0 20 0C8.992 0 0 9.008 0 20C0 31.008 9.008 40 20 40Z" fill="#F5F0FD"/>		<path d="M25.7917 24.32L31.4557 21.056C31.7597 20.88 31.9357 20.56 31.9357 20.208V13.68C31.9357 13.328 31.7437 13.008 31.4557 12.832L25.7917 9.56804C25.4877 9.39204 25.1197 9.39204 24.8157 9.56804L19.1517 12.832C18.8477 13.008 18.6717 13.328 18.6717 13.68V25.36L14.7037 27.648L10.7357 25.36V20.784L14.7037 18.496L17.3277 20V16.928L15.1997 15.696C15.0557 15.616 14.8797 15.568 14.7197 15.568C14.5437 15.568 14.3837 15.616 14.2397 15.696L8.5757 18.96C8.2717 19.136 8.0957 19.456 8.0957 19.808V26.336C8.0957 26.688 8.2877 27.008 8.5757 27.184L14.2397 30.448C14.5437 30.624 14.9117 30.624 15.2157 30.448L20.8797 27.184C21.1837 27.008 21.3597 26.688 21.3597 26.336V14.656L21.4237 14.608L25.3277 12.352L29.2957 14.64V19.216L25.3277 21.504L22.7197 20V23.072L24.8477 24.304C25.1517 24.48 25.5197 24.48 25.8237 24.304L25.7917 24.32Z" fill="#A128C5"/>	</g>	<defs>		<clipPath id="clip0_296_5767">			<rect width="40" height="40" fill="white"/>		</clipPath>	</defs></svg>