<svg width="40" height="40" viewBox="0 0 40 40" fill="none" xmlns="http://www.w3.org/2000/svg">
<path d="M40 20C40 8.9543 31.0457 0 20 0C8.9543 0 0 8.9543 0 20C0 31.0457 8.9543 40 20 40C31.0457 40 40 31.0457 40 20Z" fill="#FFEEDA"/>
<path d="M30.3631 24.1617V10.4174C30.3375 9.26674 29.4297 8.34619 28.279 8.34619H13.9339C10.8398 8.39733 8.34668 10.9288 8.34668 14.0357C8.34668 15.0841 8.62796 15.979 9.06266 16.7717C9.42065 17.4238 9.99599 18.0375 10.5585 18.5105C10.712 18.6384 10.6353 18.5873 11.1211 18.8941C11.7987 19.3032 12.5658 19.5078 12.5658 19.5078V27.7288C12.5786 28.1123 12.6298 28.4959 12.7193 28.8411C13.0389 29.9918 13.8444 30.8868 14.9311 31.3215C15.3914 31.5005 15.9028 31.6283 16.4526 31.6283L27.9083 31.6667C30.1968 31.6667 32.0507 29.8128 32.0507 27.5242C32.0507 26.1306 31.3859 24.916 30.3631 24.1617Z" fill="#FFEEDA"/>
<path d="M30.6314 27.5879C30.5802 29.0582 29.3784 30.2345 27.9081 30.2345L20.0195 30.2089C20.646 29.4802 21.0296 28.534 21.0296 27.5112C21.0296 25.8875 20.0579 24.7751 20.0579 24.7751H27.9081C29.4168 24.7751 30.6314 26.0025 30.6314 27.5112V27.5879Z" fill="#EBC28E"/>
<path d="M11.2864 17.3214C10.3787 16.4647 9.7394 15.3524 9.7394 14.0227V13.8821C9.81611 11.6319 11.67 9.81635 13.9202 9.73964H28.2654C28.6361 9.75243 28.943 10.0209 28.943 10.4045V22.5378C29.2754 22.6017 29.4288 22.6401 29.7485 22.7551C29.9914 22.8446 30.3494 23.0492 30.3494 23.0492V10.4045C30.3238 9.2538 29.4161 8.33325 28.2654 8.33325H13.9202C10.8262 8.38439 8.33301 10.9159 8.33301 14.0227C8.33301 15.8255 9.15127 17.3725 10.5065 18.4593C10.596 18.536 10.6855 18.6255 10.9284 18.6255C11.3504 18.6255 11.6444 18.293 11.6316 17.9223C11.6188 17.6154 11.491 17.5004 11.2864 17.3214Z" fill="#190602"/>
<path d="M27.907 23.3561H16.6558C15.9015 23.3561 15.2878 23.9826 15.2878 24.7369V26.3479C15.3134 27.0895 15.9527 27.7415 16.6942 27.7415H17.5253V26.3479H16.6942V24.7625C16.6942 24.7625 16.8988 24.7625 17.1545 24.7625C18.5737 24.7625 19.6221 26.0794 19.6221 27.4986C19.6221 28.7515 18.4842 30.3497 16.5791 30.2219C14.8787 30.1068 13.9709 28.5981 13.9709 27.4986V13.7799C13.9709 13.1662 13.4723 12.6548 12.8458 12.6548H11.7207V14.0612H12.5518V27.4986C12.5134 30.2347 14.4951 31.6155 16.5664 31.6155L27.907 31.6538C30.1955 31.6538 32.0494 29.7999 32.0494 27.5114C32.0494 25.2228 30.1955 23.3561 27.907 23.3561ZM30.6302 27.5881C30.5791 29.0584 29.3773 30.2346 27.907 30.2346L20.0184 30.2091C20.6449 29.4803 21.0284 28.5342 21.0284 27.5114C21.0284 25.8876 20.0568 24.7753 20.0568 24.7753H27.907C29.4156 24.7753 30.6302 26.0027 30.6302 27.5114V27.5881Z" fill="#190602"/>
<path d="M24.9656 14.304H16.3994V12.9104H24.9656C25.3108 12.9104 25.5793 13.1917 25.5793 13.5241V13.6903C25.5793 14.0355 25.298 14.304 24.9656 14.304Z" fill="#190602"/>
<path d="M24.9656 20.9139H16.3994V19.5203H24.9656C25.3108 19.5203 25.5793 19.8015 25.5793 20.134V20.3002C25.5793 20.6326 25.298 20.9139 24.9656 20.9139Z" fill="#190602"/>
<path d="M26.4498 17.6153H16.3877V16.2217H26.4498C26.795 16.2217 27.0635 16.503 27.0635 16.8354V17.0016C27.0763 17.334 26.795 17.6153 26.4498 17.6153Z" fill="#190602"/>
</svg>
