<svg width="32" height="32" viewBox="0 0 32 32" fill="none" xmlns="http://www.w3.org/2000/svg">
<g clip-path="url(#clip0_1785_12906)">
<rect width="32" height="32" fill="#F9F8D8"/>
<path d="M26 6V13.8659C22.8039 14.6067 19.453 15 16 15C12.547 15 9.19606 14.6058 6 13.8659V6C9.19606 6.73993 12.547 7.13411 16 7.13411C19.453 7.13411 22.8039 6.74084 26 6Z" fill="#1D1D1D"/>
<path d="M6 25.25V16.5101C9.19606 15.687 12.547 15.25 16 15.25C19.453 15.25 22.8039 15.688 26 16.5101V25.25C22.8039 24.4279 19.453 23.9899 16 23.9899C12.547 23.9899 9.19606 24.4268 6 25.25Z" fill="#1D1D1D"/>
</g>
<defs>
<clipPath id="clip0_1785_12906">
<rect width="32" height="32" rx="16" fill="white"/>
</clipPath>
</defs>
</svg>
