<svg width="40" height="40" viewBox="0 0 40 40" fill="none" xmlns="http://www.w3.org/2000/svg">
	<g clip-path="url(#clip0_296_5689)">
		<mask id="mask0_296_5689" style="mask-type:luminance" maskUnits="userSpaceOnUse" x="0" y="0" width="40" height="40">
			<path d="M40 0H0V40H40V0Z" fill="white"/>
		</mask>
		<g mask="url(#mask0_296_5689)">
			<mask id="mask1_296_5689" style="mask-type:alpha" maskUnits="userSpaceOnUse" x="0" y="0" width="40" height="40">
				<path d="M20 40C31.0457 40 40 31.0457 40 20C40 8.9543 31.0457 0 20 0C8.9543 0 0 8.9543 0 20C0 31.0457 8.9543 40 20 40Z" fill="#D9D9D9"/>
			</mask>
			<g mask="url(#mask1_296_5689)">
				<path d="M46.778 -8.69385H-6.17188V44.2561H46.778V-8.69385Z" fill="#A1723A"/>
				<g filter="url(#filter0_f_296_5689)">
					<path d="M21.5275 39.1609C33.3144 39.1609 42.8695 29.6085 42.8695 17.8251C42.8695 6.04162 33.3144 -3.51074 21.5275 -3.51074C9.74069 -3.51074 0.185547 6.04162 0.185547 17.8251C0.185547 29.6085 9.74069 39.1609 21.5275 39.1609Z" fill="#531002"/>
				</g>
				<g filter="url(#filter1_f_296_5689)">
					<path d="M23.8284 32.4055C33.3884 32.4055 41.1383 24.6529 41.1383 15.0895C41.1383 5.52609 33.3884 -2.22656 23.8284 -2.22656C14.2684 -2.22656 6.51855 5.52609 6.51855 15.0895C6.51855 24.6529 14.2684 32.4055 23.8284 32.4055Z" fill="#2B5DF0"/>
				</g>
				<g filter="url(#filter2_f_296_5689)">
					<path d="M23.5116 33.3964C33.478 33.3964 41.5574 25.3143 41.5574 15.3444C41.5574 5.37462 33.478 -2.70752 23.5116 -2.70752C13.5451 -2.70752 5.46582 5.37462 5.46582 15.3444C5.46582 25.3143 13.5451 33.3964 23.5116 33.3964Z" fill="url(#paint0_radial_296_5689)"/>
				</g>
				<g filter="url(#filter3_f_296_5689)">
					<path d="M26.5051 19.8907C31.5258 19.8907 35.5959 15.8206 35.5959 10.7999C35.5959 5.77912 31.5258 1.70898 26.5051 1.70898C21.4843 1.70898 17.4141 5.77912 17.4141 10.7999C17.4141 15.8206 21.4843 19.8907 26.5051 19.8907Z" fill="#FCB8D4"/>
				</g>
				<g filter="url(#filter4_f_296_5689)">
					<path d="M26.4984 14.4235C28.5033 14.4235 30.1285 12.7981 30.1285 10.7933C30.1285 8.78837 28.5033 7.16309 26.4984 7.16309C24.4935 7.16309 22.8682 8.78837 22.8682 10.7933C22.8682 12.7981 24.4935 14.4235 26.4984 14.4235Z" fill="white"/>
				</g>
				<g filter="url(#filter5_f_296_5689)">
					<path d="M24.087 47.0388C42.1037 47.0388 56.7091 32.4333 56.7091 14.4167C56.7091 -3.60008 42.1037 -18.2056 24.087 -18.2056C6.07027 -18.2056 -8.53516 -3.60008 -8.53516 14.4167C-8.53516 32.4333 6.07027 47.0388 24.087 47.0388Z" fill="url(#paint1_radial_296_5689)" fill-opacity="0.9"/>
				</g>
			</g>
		</g>
	</g>
	<defs>
		<filter id="filter0_f_296_5689" x="-3.77239" y="-7.46868" width="50.5995" height="50.5873" filterUnits="userSpaceOnUse" color-interpolation-filters="sRGB">
			<feFlood flood-opacity="0" result="BackgroundImageFix"/>
			<feBlend mode="normal" in="SourceGraphic" in2="BackgroundImageFix" result="shape"/>
			<feGaussianBlur stdDeviation="1.97897" result="effect1_foregroundBlur_296_5689"/>
		</filter>
		<filter id="filter1_f_296_5689" x="-1.39735" y="-10.1425" width="50.4519" height="50.4636" filterUnits="userSpaceOnUse" color-interpolation-filters="sRGB">
			<feFlood flood-opacity="0" result="BackgroundImageFix"/>
			<feBlend mode="normal" in="SourceGraphic" in2="BackgroundImageFix" result="shape"/>
			<feGaussianBlur stdDeviation="3.95795" result="effect1_foregroundBlur_296_5689"/>
		</filter>
		<filter id="filter2_f_296_5689" x="2.49736" y="-5.67598" width="42.0287" height="42.0409" filterUnits="userSpaceOnUse" color-interpolation-filters="sRGB">
			<feFlood flood-opacity="0" result="BackgroundImageFix"/>
			<feBlend mode="normal" in="SourceGraphic" in2="BackgroundImageFix" result="shape"/>
			<feGaussianBlur stdDeviation="1.48423" result="effect1_foregroundBlur_296_5689"/>
		</filter>
		<filter id="filter3_f_296_5689" x="11.4771" y="-4.22794" width="30.0555" height="30.0555" filterUnits="userSpaceOnUse" color-interpolation-filters="sRGB">
			<feFlood flood-opacity="0" result="BackgroundImageFix"/>
			<feBlend mode="normal" in="SourceGraphic" in2="BackgroundImageFix" result="shape"/>
			<feGaussianBlur stdDeviation="2.96846" result="effect1_foregroundBlur_296_5689"/>
		</filter>
		<filter id="filter4_f_296_5689" x="18.9102" y="3.20515" width="15.1766" height="15.1761" filterUnits="userSpaceOnUse" color-interpolation-filters="sRGB">
			<feFlood flood-opacity="0" result="BackgroundImageFix"/>
			<feBlend mode="normal" in="SourceGraphic" in2="BackgroundImageFix" result="shape"/>
			<feGaussianBlur stdDeviation="1.97897" result="effect1_foregroundBlur_296_5689"/>
		</filter>
		<filter id="filter5_f_296_5689" x="-11.5036" y="-21.174" width="71.1811" height="71.1811" filterUnits="userSpaceOnUse" color-interpolation-filters="sRGB">
			<feFlood flood-opacity="0" result="BackgroundImageFix"/>
			<feBlend mode="normal" in="SourceGraphic" in2="BackgroundImageFix" result="shape"/>
			<feGaussianBlur stdDeviation="1.48423" result="effect1_foregroundBlur_296_5689"/>
		</filter>
		<radialGradient id="paint0_radial_296_5689" cx="0" cy="0" r="1" gradientUnits="userSpaceOnUse" gradientTransform="translate(26.5554 10.2516) rotate(128.228) scale(34.0815 34.0787)">
			<stop offset="0.286458" stop-color="#387AFA"/>
			<stop offset="0.647782" stop-color="#387AFA" stop-opacity="0"/>
		</radialGradient>
		<radialGradient id="paint1_radial_296_5689" cx="0" cy="0" r="1" gradientUnits="userSpaceOnUse" gradientTransform="translate(24.087 14.4167) rotate(90) scale(32.6221)">
			<stop offset="0.598958" stop-opacity="0"/>
			<stop offset="0.671875"/>
			<stop offset="0.734375" stop-opacity="0"/>
		</radialGradient>
		<clipPath id="clip0_296_5689">
			<rect width="40" height="40" fill="white"/>
		</clipPath>
	</defs>
</svg>
